/* XPM */
static char * background_cube_xpm[] = {
"30 30 19 1",
" 	c #77BBFF",
".	c #7BBDFF",
"+	c #7CBDFF",
"@	c #7ABCFF",
"#	c #8FC7FF",
"$	c #96CAFF",
"%	c #95CAFF",
"&	c #89C3FF",
"*	c #94C9FF",
"=	c #9CCEFF",
"-	c #9CCDFF",
";	c #8DC5FF",
">	c #7ABDFF",
",	c #9BCDFF",
"'	c #8CC5FF",
")	c #79BCFF",
"!	c #86C2FF",
"~	c #8AC4FF",
"{	c #82C0FF",
"                              ",
"  .++++++++++++++++++++++++@  ",
" @#$%%%%%%%%%%%%%%%%%%%%%%$&  ",
" .*=----------------------=;  ",
" >*-,,,,,,,,,,,,,,,,,,,,,,,'  ",
" >*-,,,,,,,,,,,,,,,,,,,,,,,'  ",
" >*-,,,,,,,,,,,,,,,,,,,,,,,'  ",
" >*-,,,,,,,,,,,,,,,,,,,,,,,'  ",
" >*-,,,,,,,,,,,,,,,,,,,,,,,'  ",
" >*-,,,,,,,,,,,,,,,,,,,,,,,'  ",
" >*-,,,,,,,,,,,,,,,,,,,,,,,'  ",
" >*-,,,,,,,,,,,,,,,,,,,,,,,'  ",
" >*-,,,,,,,,,,,,,,,,,,,,,,,'  ",
" >*-,,,,,,,,,,,,,,,,,,,,,,,'  ",
" >*-,,,,,,,,,,,,,,,,,,,,,,,'  ",
" >*-,,,,,,,,,,,,,,,,,,,,,,,'  ",
" >*-,,,,,,,,,,,,,,,,,,,,,,,'  ",
" >*-,,,,,,,,,,,,,,,,,,,,,,,'  ",
" >*-,,,,,,,,,,,,,,,,,,,,,,,'  ",
" >*-,,,,,,,,,,,,,,,,,,,,,,,'  ",
" >*-,,,,,,,,,,,,,,,,,,,,,,,'  ",
" >*-,,,,,,,,,,,,,,,,,,,,,,,'  ",
" >*-,,,,,,,,,,,,,,,,,,,,,,,'  ",
" >*-,,,,,,,,,,,,,,,,,,,,,,,'  ",
" >*-,,,,,,,,,,,,,,,,,,,,,,,'  ",
" >*-,,,,,,,,,,,,,,,,,,,,,,,'  ",
" >*-,,,,,,,,,,,,,,,,,,,,,,,'  ",
" )!~~~~~~~~~~~~~~~~~~~~~~~~{  ",
"                              ",
"                              "};
