/* XPM */
static char * ice_cube_xpm[] = {
"30 30 76 1",
" 	c #779CDB",
".	c #5E89D5",
"+	c #658ED7",
"@	c #618BD6",
"#	c #5987D4",
"$	c #9FB7E5",
"%	c #C0D3F1",
"&	c #BED1F0",
"*	c #A1B8E6",
"=	c #1B69CD",
"-	c #608BD7",
";	c #91B6F1",
">	c #CDE4FF",
",	c #E5F3FF",
"'	c #E3F2FF",
")	c #93B8F2",
"!	c #226DCE",
"~	c #5A89D7",
"{	c #2E91F0",
"]	c #94C3FF",
"^	c #CEE3FF",
"/	c #E1F0FF",
"(	c #3693F1",
"_	c #0769CE",
":	c #3592F0",
"<	c #4AA5FF",
"[	c #8CBEFF",
"}	c #D2E6FF",
"|	c #DFEFFF",
"1	c #3C94F1",
"2	c #0869CE",
"3	c #47A5FF",
"4	c #53A7FF",
"5	c #86BBFF",
"6	c #3C95F1",
"7	c #49A5FF",
"8	c #45A3FF",
"9	c #E3F1FF",
"0	c #48A4FF",
"a	c #46A4FF",
"b	c #49A4FF",
"c	c #94C2FF",
"d	c #C1DCFF",
"e	c #D1E8FF",
"f	c #44A3FF",
"g	c #92C4FF",
"h	c #BFDFFF",
"i	c #46A3FF",
"j	c #93C4FF",
"k	c #C0DFFF",
"l	c #94C5FF",
"m	c #C0E0FF",
"n	c #3992EF",
"o	c #6B9EE7",
"p	c #8CB0E7",
"q	c #47A3FE",
"r	c #3D95F2",
"s	c #1E76D8",
"t	c #0063CB",
"u	c #0064CC",
"v	c #3E97F3",
"w	c #1A72D5",
"x	c #0066CC",
"y	c #0467CD",
"z	c #3B94F0",
"A	c #5987D5",
"B	c #1F7DDF",
"C	c #2279DA",
"D	c #0064CB",
"E	c #2A80E0",
"F	c #0468CD",
"G	c #5584D4",
"H	c #005ECA",
"I	c #0062CB",
"J	c #5986D4",
"K	c #5282D3",
" .++++++++++++++++++++++++++@#",
".$%&&&&&&&&&&&&&&&&&&&&&&&&%*=",
"-;>,'''''''''''''''''''''',>)!",
"~{]^//////////////////////^](_",
"~:<[}|//////////////////|}[<12",
"~:345}//////////////////}54362",
"~:784[^9//////////////9^[48762",
"~:70abcdeeeeeeeeeeeeeedcba0762",
"~:7000fghhhhhhhhhhhhhhgf000762",
"~:7000ijkhhhhhhhhhhhhkji000762",
"~:7000ijkhhhhhhhhhhhhkji000762",
"~:7000ijkhhhhhhhhhhhhkji000762",
"~:7000ijkhhhhhhhhhhhhkji000762",
"~:7000ijkhhhhhhhhhhhhkji000762",
"~:7000ijkhhhhhhhhhhhhkji000762",
"~:7000ijkhhhhhhhhhhhhkji000762",
"~:7000ijkhhhhhhhhhhhhkji000762",
"~:7000ijkhhhhhhhhhhhhkji000762",
"~:7000ijkhhhhhhhhhhhhkji000762",
"~:7000ijkhhhhhhhhhhhhkji000762",
"~:7000ijkhhhhhhhhhhhhkji000762",
"~:7000almmmmmmmmmmmmmmla000762",
"~:7000noppppppppppppppon000762",
"~:70qrstuuuuuuuuuuuuuutsrq0762",
"~:7qvwxxxxxxxxxxxxxxxxxxwvq762",
"~:7rwyxxxxxxxxxxxxxxxxxxywr762",
"~(zsxxxxxxxxxxxxxxxxxxxxxxsz62",
"ABCDxxxxxxxxxxxxxxxxxxxxxxDCEF",
"GHIIIIIIIIIIIIIIIIIIIIIIIIIIIt",
" GJJJJJJJJJJJJJJJJJJJJJJJJJJ#K"};
