/* XPM */
static char * key_xpm[] = {
"30 30 76 1",
" 	c #D3EDFD",
".	c #D1ECFD",
"+	c #DAF2FF",
"@	c #D9F1FF",
"#	c #DAF1FF",
"$	c #020303",
"%	c #010101",
"&	c #010202",
"*	c #040505",
"=	c #D4ECFA",
"-	c #000000",
";	c #F9DB2E",
">	c #F9DB32",
",	c #F9DC31",
"'	c #FADD2D",
")	c #FADD2F",
"!	c #FADD30",
"~	c #FBDD2E",
"{	c #FADE2F",
"]	c #D7EFFC",
"^	c #FBDD2C",
"/	c #FADB2B",
"(	c #F9DB2B",
"_	c #FADC2C",
":	c #0E0D08",
"<	c #D7EFFD",
"[	c #FBDD2D",
"}	c #F9DB2C",
"|	c #FADC2B",
"1	c #F7DA2F",
"2	c #D5EDFA",
"3	c #060809",
"4	c #080A0B",
"5	c #050606",
"6	c #020202",
"7	c #070809",
"8	c #FADC2D",
"9	c #F9DA2A",
"0	c #F7D92B",
"a	c #F8DA2A",
"b	c #F9DC2C",
"c	c #010000",
"d	c #FBDD31",
"e	c #FADC2A",
"f	c #F8DB2D",
"g	c #F8DA2C",
"h	c #F8D92C",
"i	c #F7D92C",
"j	c #F9DB29",
"k	c #D6EEFC",
"l	c #010100",
"m	c #F9DB2A",
"n	c #080705",
"o	c #FBDD2B",
"p	c #F9DC2F",
"q	c #262002",
"r	c #D8F1FE",
"s	c #D8F0FE",
"t	c #F6D92C",
"u	c #F7D82B",
"v	c #030404",
"w	c #FADD2E",
"x	c #F7D92A",
"y	c #000101",
"z	c #050605",
"A	c #030301",
"B	c #FBDD2F",
"C	c #FADE30",
"D	c #FADC2F",
"E	c #0B0D0F",
"F	c #000001",
"G	c #010102",
"H	c #040201",
"I	c #FADC2E",
"J	c #FBDC2D",
"K	c #060502",
"+@@@@@@@@@@@@@@@@@@@@@@@@@@@@@",
"+@@@@@@@@@@@@@@@@@@@@@@@@@@@@@",
"#@@@@@@@@@@@@@@@@@@@@@@@@@@@@@",
"+@@@@@@@@@@@@@@@@@@@@@@@@@@@@@",
"+@@@@@@@@@@@@@@@@@@@@@@@@@@@@@",
"+@@@@@@@@@@@@@@@@@@@@@@@@@@@@@",
"+@@@@@@@@@@@@@@@@@@@@@@@@@@@@@",
"+@@@@@@@@@@@@@@@@@@@$%%&*=@@@@",
"+@@@@@@@@@@@@@@@@@@--;>,--@@@@",
"+@@@@@@@@@@@@@@@@@--')!~{--@@]",
"+++++@@@@@@@@@@@@--~^/(__)-:@@",
"<@@@@@@@@@@@@@@@--~[_}-}_|1--2",
"@@-%*%344444567--8[90-@-}_a0-2",
"@--['[[[88[[8[[[b_[_c@@@-8}_$2",
"@6d~[___}(||_[[[[e[8&@@@-f_g-2",
"@%~~8hhi}_^jg}[g[([8%k@@-8__%@",
"@l[[[---*(_mn$ll-_o~p-@q8___-@",
"@-j[[-rs-t_uv@@@--_^p~-[w~x_-@",
"@l_[8-@@yzb*-@@@@A-_BCD~[|(--@",
"@-[[gE@@@-FG@@+@@@H-(_II[_--@@",
"@-%---@@@@@@@r@@@@@--8J[[-%=@@",
"@@@@@@<@@@@@@@@@@@@@---clK@@@@",
"@@sss@@@@@@@@@@@@@@@@@@@@@@@@@",
"+@@@@@@@@@@@@@@@@@@@@@@@@s@@@@",
"+@@@@@@@@@@@@@@@@@@@@@@@@@@@@@",
"+@@@@@@@@@@@@@@@@@@@@@@@@@@@@@",
"+@@@@@@@@@@@@@@@@@@@@@@@@@@@@@",
"+@@@@@@@@@@@@@@@@@@@@@@@@@@@@@",
"+@@@@@@@@@@@@@@@@@@@@@@@@@@@@@",
"+@@@@@@@@@@@@@@@@@@@@@@@@@@@@@"};
