/* XPM */
static char * level4_xpm[] = {
"121 26 37 1",
" 	c #D9F1FF",
".	c #D9F1FE",
"+	c #D9F0FF",
"@	c #D8F0FF",
"#	c #D8F1FF",
"$	c #D9F0FE",
"%	c #D8F1FE",
"&	c #D9F2FE",
"*	c #DAF2FE",
"=	c #D8F0FE",
"-	c #D9BCDD",
";	c #5C48CC",
">	c #5C85EE",
",	c #C1F1FF",
"'	c #3F48CC",
")	c #3F67DD",
"!	c #A9F1FF",
"~	c #C1A1D5",
"{	c #A985D5",
"]	c #3F48D5",
"^	c #77BCFF",
"/	c #5CA1F7",
"(	c #A985CC",
"_	c #3F48DD",
":	c #D9F1EE",
"<	c #7748CC",
"[	c #3F85EE",
"}	c #91D7FF",
"|	c #D9D6E6",
"1	c #3F67E6",
"2	c #D9F1F7",
"3	c #9167CC",
"4	c #7785D5",
"5	c #A984CC",
"6	c #D9D7E6",
"7	c #77BCF7",
"8	c #7767CC",
"                       .          +                  @         @#                 .          .     $                     ",
"                      .                        @   %             $.      $                  #       $                    ",
"                     $                   +&.%                       .@            +         +        +                   ",
"                  @ $             *@ .                                 $.        =                                       ",
"                .                                                                .                   .                   ",
"               $       -;>,       -;''''''')!~'>      {]^ -;''''''')! -;>,       +         ~'/       $                   ",
"              $        ('_!       ('''''''')!('_!    :<'/ ('''''''')! ('_!      =         -''[        +                  ",
"             .         ('_!       ('_!       -''^    -']} ('_!        ('_!      +        |;''[        $                  ",
"            .          ('_!       ('_!       :<'[    ('1, ('_!        ('_!     =        23]4'[                           ",
"           .           ('_!       ('_!        ~']}  :<'/  5'_!        ('_!     .        5'^~'[         $                 ",
"          .            ('_!       (''''''''/  6;'/  -']}  (''''''''/  ('_!             ~'[ ~'[          @                ",
"         .             ('_!       (''''''''/  23'1,23'[   (''''''''/  ('_!            6;1, ~'[          $                ",
"        $              ('_!       ('_!         ~']}6;'^   ('_!        ('_!           :<]}  ~'[           @               ",
"       .               ('_!       ('_!         :<'/~'_!   ('_!        ('_!           ~'''''''''7         $               ",
"      #                ('_!       ('_!          (')8'[    ('_!        ('_!     .  @ .6;''''''''7          +              ",
"      +                ('_!       ('_!          -''']}    ('_!        ('_!      .          ~'[                           ",
"                       (''''''''/ ('''''''']}   :<''1,    ('''''''']} (''''''''/           ~'[            @              ",
"                       -;'''''''/ -;''''''']}    -;]}     -;''''''']} -;'''''''/           -;/           =               ",
"       .                                                                                          .$    =                ",
"       #$                                                                                           +  +                 ",
"         +                     =        &+   *                                           $                               ",
"                               %               # .%        =&    .$                     =.        +                      ",
"                                                                   +                    @                                ",
"                                                                   +                   ..        $                       ",
"                                                                                      =          .                       ",
"                                                                                                                         "};
