/* XPM */
static char * level7_xpm[] = {
"121 26 30 1",
" 	c #D9F1FF",
".	c #D9F1FE",
"+	c #D9F0FF",
"@	c #D8F0FF",
"#	c #D8F1FF",
"$	c #D9F0FE",
"%	c #D9BCDD",
"&	c #5C48CC",
"*	c #5C85EE",
"=	c #C1F1FF",
"-	c #3F48CC",
";	c #3F67DD",
">	c #A9F1FF",
",	c #C1A1D5",
"'	c #A985D5",
")	c #3F48D5",
"!	c #77BCFF",
"~	c #C1BCDD",
"{	c #91D7FF",
"]	c #A985CC",
"^	c #3F48DD",
"/	c #D9F1EE",
"(	c #7748CC",
"_	c #5CA1F7",
":	c #3F85EE",
"<	c #3F67E6",
"[	c #D9D7E6",
"}	c #D9F1F7",
"|	c #9167CC",
"1	c #7767CC",
"                       .          +                  @         @#                 .          .     $                     ",
"                                                                                                                         ",
"                                                                                                                         ",
"                                                                                                                         ",
"                                                                                                                         ",
"                       %&*=       %&-------;>,-*      ')! %&-------;> %&*=            ~-------){                         ",
"                       ]-^>       ]--------;>]-^>    /(-_ ]--------;> ]-^>            %&-------!                         ",
"                       ]-^>       ]-^>       %--!    %-){ ]-^>        ]-^>                  ]-:                          ",
"                       ]-^>       ]-^>       /(-:    ]-<= ]-^>        ]-^>                 ,-<=                          ",
"                       ]-^>       ]-^>        ,-){  /(-_  ]-^>        ]-^>                /(){                           ",
"                       ]-^>       ]--------_  [&-_  %-){  ]--------_  ]-^>                ]-:                            ",
"                       ]-^>       ]--------_  }|-<=}|-:   ]--------_  ]-^>               [&){                            ",
"                       ]-^>       ]-^>         ,-){[&-!   ]-^>        ]-^>               ,-<=                            ",
"                       ]-^>       ]-^>         /(-_,-^>   ]-^>        ]-^>              /(-_                             ",
"                       ]-^>       ]-^>          ]-;1-:    ]-^>        ]-^>              %--!                             ",
"                       ]-^>       ]-^>          %---){    ]-^>        ]-^>              ,-){                             ",
"                       ]--------_ ]--------){   /(--<=    ]--------){ ]--------_        ]-^>                             ",
"                       %&-------_ %&-------){    %&){     %&-------){ %&-------_        %-_                              ",
"                                                                                                                         ",
"                                                                                                                         ",
"                                                                                                                         ",
"                                                                                                                         ",
"                                                                                                                         ",
"                                                                                                                         ",
"                                                                                                                         ",
"                                                                                                                         "};
