/* XPM */
static char * level5_xpm[] = {
"121 26 36 1",
" 	c #D9F1FF",
".	c #D9F1FE",
"+	c #D9F0FF",
"@	c #D8F0FF",
"#	c #D8F1FF",
"$	c #D9F0FE",
"%	c #D9BCDD",
"&	c #5C48CC",
"*	c #5C85EE",
"=	c #C1F1FF",
"-	c #3F48CC",
";	c #3F67DD",
">	c #A9F1FF",
",	c #C1A1D5",
"'	c #A985D5",
")	c #3F48D5",
"!	c #77BCFF",
"~	c #3F85EE",
"{	c #A985CC",
"]	c #3F48DD",
"^	c #D9F1EE",
"/	c #7748CC",
"(	c #5CA1F7",
"_	c #91D7FF",
":	c #D9F1F7",
"<	c #9167CC",
"[	c #3F67E6",
"}	c #D9D7E6",
"|	c #7785D5",
"1	c #A9D7FF",
"2	c #D9D7EE",
"3	c #D9D7F7",
"4	c #A9D7F7",
"5	c #7767CC",
"6	c #9185D5",
"7	c #5C85E6",
"                       .          +                  @         @#                 .          .     $                     ",
"                                                                                                                         ",
"                                                                                                                         ",
"                                                                                                                         ",
"                                                                                                                         ",
"                       %&*=       %&-------;>,-*      ')! %&-------;> %&*=             %&-----~=                         ",
"                       {-]>       {--------;>{-]>    ^/-( {--------;> {-]>             {------~=                         ",
"                       {-]>       {-]>       %--!    %-)_ {-]>        {-]>            :<-!                               ",
"                       {-]>       {-]>       ^/-~    {-[= {-]>        {-]>            ^/)_                               ",
"                       {-]>       {-]>        ,-)_  ^/-(  {-]>        {-]>            }&]|&-;_                           ",
"                       {-]>       {--------(  }&-(  %-)_  {--------(  {-]>            %-------!                          ",
"                       {-]>       {--------(  :<-[=:<-~   {--------(  {-]>            ,-;1 2/-[=                         ",
"                       {-]>       {-]>         ,-)_}&-!   {-]>        {-]>             3    %-)_                         ",
"                       {-]>       {-]>         ^/-(,-]>   {-]>        {-]>            34    }&)_                         ",
"                       {-]>       {-]>          {-;5-~    {-]>        {-]>           :<-!   %-)_                         ",
"                       {-]>       {-]>          %---)_    {-]>        {-]>            {-)_ 2/-[=                         ",
"                       {--------( {--------)_   ^/--[=    {--------)_ {--------(      2/-----]1                          ",
"                       %&-------( %&-------)_    %&)_     %&-------)_ %&-------(       26---71                           ",
"                                                                                                                         ",
"                                                                                                                         ",
"                                                                                                                         ",
"                                                                                                                         ",
"                                                                                                                         ",
"                                                                                                                         ",
"                                                                                                                         ",
"                                                                                                                         "};
