/* XPM */
static char * level10_xpm[] = {
"121 26 36 1",
" 	c #D9F1FF",
".	c #D9F1FE",
"+	c #D9F0FF",
"@	c #D8F0FF",
"#	c #D8F1FF",
"$	c #D9F0FE",
"%	c #D9BCDD",
"&	c #5C48CC",
"*	c #5C85EE",
"=	c #C1F1FF",
"-	c #3F48CC",
";	c #3F67DD",
">	c #A9F1FF",
",	c #C1A1D5",
"'	c #A985D5",
")	c #3F48D5",
"!	c #77BCFF",
"~	c #D9D7E6",
"{	c #77BCF7",
"]	c #D9F1F7",
"^	c #77A1EE",
"/	c #A985CC",
"(	c #3F48DD",
"_	c #D9F1EE",
":	c #7748CC",
"<	c #5CA1F7",
"[	c #9167CC",
"}	c #3F85EE",
"|	c #3F67E6",
"1	c #91D7FF",
"2	c #C1BCE6",
"3	c #7767CC",
"4	c #5C85E6",
"5	c #91BCF7",
"6	c #A9A1DD",
"7	c #77A1F7",
"                       .          +                  @         @#                 .          .     $                     ",
"                                                                                                                         ",
"                                                                                                                         ",
"                                                                                                                         ",
"                                                                                                                         ",
"                  %&*=       %&-------;>,-*      ')! %&-------;> %&*=                ~&{     ]'&-)^=                     ",
"                  /-(>       /--------;>/-(>    _:-< /--------;> /-(>               ][-}    ][-----|=                    ",
"                  /-(>       /-(>       %--!    %-)1 /-(>        /-(>              ][--}    ,-)1 2&-!                    ",
"                  /-(>       /-(>       _:-}    /-|= /-(>        /-(>             23---}   ][-}   /-|=                   ",
"                  /-(>       /-(>        ,-)1  _:-<  /-(>        /-(>            /--43-}   _:-<   ,-(>                   ",
"                  /-(>       /--------<  ~&-<  %-)1  /--------<  /-(>            ,){][-}   ~&-!   %-(>                   ",
"                  /-(>       /--------<  ][-|=][-}   /--------<  /-(>               ][-}   ~&-!   %-)1                   ",
"                  /-(>       /-(>         ,-)1~&-!   /-(>        /-(>               ][-}   ~&-!   %-)1                   ",
"                  /-(>       /-(>         _:-<,-(>   /-(>        /-(>               ][-}   _:-<   ,-(>                   ",
"                  /-(>       /-(>          /-;3-}    /-(>        /-(>               ][-}   ][-}   /-|=                   ",
"                  /-(>       /-(>          %---)1    /-(>        /-(>               ][-}    %-)5 2&-!                    ",
"                  /--------< /--------)1   _:--|=    /--------)1 /--------<         ][-}     /-----}                     ",
"                  %&-------< %&-------)1    %&)1     %&-------)1 %&-------<          ,)!     ]6&-)7                      ",
"                                                                                                                         ",
"                                                                                                                         ",
"                                                                                                                         ",
"                                                                                                                         ",
"                                                                                                                         ",
"                                                                                                                         ",
"                                                                                                                         ",
"                                                                                                                         "};
