/* XPM */
static char * level1_xpm[] = {
"121 26 29 1",
" 	c #D9F1FF",
".	c #D9D8CF",
"+	c #314E9D",
"@	c #004F9D",
"#	c #006CCF",
"$	c #BAF1FF",
"%	c #004EBF",
"&	c #9BD8FF",
"*	c #D9BEBF",
"=	c #3189DF",
"-	c #D9F1EF",
";	c #7A6C9D",
">	c #BAA4AE",
",	c #004EAE",
"'	c #7AD8FF",
")	c #57BEFF",
"!	c #9B899D",
"~	c #9BF1FF",
"{	c #D9F1DF",
"]	c #574E9D",
"^	c #0089DF",
"/	c #31A4EF",
"(	c #BABEBF",
"_	c #D9D8DF",
":	c #7A89AE",
"<	c #D9BECF",
"[	c #31A4DF",
"}	c #006CAE",
"|	c #576C9D",
"                                                                                                                         ",
"                                                                                                                         ",
"                                                                                                                         ",
"                                                                                                                         ",
"                                                                                                                         ",
"                    .+@#$       .+@@@@@@@@%&.+@#$    *+@= .+@@@@@@@@%& .+@#$                 -;@#$                       ",
"                    >@@,'       >@@@@@@@@@,'*@@@)    !@@#$>@@@@@@@@@,' >@@,'                 >@@%~                       ",
"                    >@@,'       >@@,'       {]@@^   {]@@/ >@@,'        >@@,'                (@@@%~                       ",
"                    >@@,'       >@@,'        !@@%~  *@@,' >@@,'        >@@,'              _:@@@@%~                       ",
"                    >@@,'       >@@,'        *@@@)  !@@#$ >@@,'        >@@,'             <+@@@@@%~                       ",
"                    >@@,'       >@@@@@@@@@[  -;@@#$.+@@/  >@@@@@@@@@[  >@@,'             .+@=(@@%~                       ",
"                    >@@,'       >@@@@@@@@@=   >@@,'>@@%~  >@@@@@@@@@=  >@@,'                 *@@%~                       ",
"                    >@@,'       >@@,'         .+@@[;@@^   >@@,'        >@@,'                 *@@%~                       ",
"                    >@@,'       >@@,'          !@@}+@@)   >@@,'        >@@,'                 *@@%~                       ",
"                    >@@,'       >@@,'          *@@@@@#$   >@@,'        >@@,'                 *@@%~                       ",
"                    >@@,'       >@@,'          {]@@@@/    >@@,'        >@@,'                 *@@%~                       ",
"                    >@@@@@@@@@= >@@@@@@@@@,)    !@@@,'    >@@@@@@@@@,) >@@@@@@@@@=           *@@%~                       ",
"                    .+@@@@@@@@= .+@@@@@@@@,)    {|@@/     .+@@@@@@@@,) .+@@@@@@@@=           .+@^                        ",
"                                                                                                                         ",
"                                                                                                                         ",
"                                                                                                                         ",
"                                                                                                                         ",
"                                                                                                                         ",
"                                                                                                                         ",
"                                                                                                                         ",
"                                                                                                                         "};
