/* XPM */
static char * level2_xpm[] = {
"121 26 32 1",
" 	c #D9F1FF",
".	c #D9D8CF",
"+	c #314E9D",
"@	c #004F9D",
"#	c #006CCF",
"$	c #BAF1FF",
"%	c #004EBF",
"&	c #9BD8FF",
"*	c #D9BEBF",
"=	c #3189DF",
"-	c #BABECF",
";	c #576C9D",
">	c #004EAE",
",	c #57A4DF",
"'	c #BAA4AE",
")	c #7AD8FF",
"!	c #57BEFF",
"~	c #9B899D",
"{	c #D9F1DF",
"]	c #574E9D",
"^	c #0089DF",
"/	c #31A4EF",
"(	c #BAD8EF",
"_	c #9BA4AE",
":	c #9BF1FF",
"<	c #31A4DF",
"[	c #D9F1EF",
"}	c #7A6C9D",
"|	c #BABEBF",
"1	c #9B89AE",
"2	c #006CAE",
"3	c #57BEEF",
"                                                                                                                         ",
"                                                                                                                         ",
"                                                                                                                         ",
"                                                                                                                         ",
"                                                                                                                         ",
"                    .+@#$       .+@@@@@@@@%&.+@#$    *+@= .+@@@@@@@@%& .+@#$               -;@@@>,$                      ",
"                    '@@>)       '@@@@@@@@@>)*@@@!    ~@@#$'@@@@@@@@@>) '@@>)              *@@@@@@@#$                     ",
"                    '@@>)       '@@>)       {]@@^   {]@@/ '@@>)        '@@>)             {]@@^(_@@@!                     ",
"                    '@@>)       '@@>)        ~@@%:  *@@>) '@@>)        '@@>)             .+@%: {]@@/                     ",
"                    '@@>)       '@@>)        *@@@!  ~@@#$ '@@>)        '@@>)             {;@<  {]@@/                     ",
"                    '@@>)       '@@@@@@@@@<  [}@@#$.+@@/  '@@@@@@@@@<  '@@>)                   '@@>)                     ",
"                    '@@>)       '@@@@@@@@@=   '@@>)'@@%:  '@@@@@@@@@=  '@@>)                  |@@@/                      ",
"                    '@@>)       '@@>)         .+@@<}@@^   '@@>)        '@@>)                [1@@@/                       ",
"                    '@@>)       '@@>)          ~@@2+@@!   '@@>)        '@@>)               [}@@>3                        ",
"                    '@@>)       '@@>)          *@@@@@#$   '@@>)        '@@>)              [}@@>)                         ",
"                    '@@>)       '@@>)          {]@@@@/    '@@>)        '@@>)             [}@@>)                          ",
"                    '@@@@@@@@@= '@@@@@@@@@>!    ~@@@>)    '@@@@@@@@@>! '@@@@@@@@@=       .+@@@@@@@@<                     ",
"                    .+@@@@@@@@= .+@@@@@@@@>!    {;@@/     .+@@@@@@@@>! .+@@@@@@@@=       {;@@@@@@@@=                     ",
"                                                                                                                         ",
"                                                                                                                         ",
"                                                                                                                         ",
"                                                                                                                         ",
"                                                                                                                         ",
"                                                                                                                         ",
"                                                                                                                         ",
"                                                                                                                         "};
