/* XPM */
static char * player_xpm[] = {
"30 30 380 2",
"  	c #CBE4F9",
". 	c #DAF2FF",
"+ 	c #DAF0FD",
"@ 	c #DAEFFC",
"# 	c #D9F1FF",
"$ 	c #E5DCDA",
"% 	c #F5BA93",
"& 	c #E0E6ED",
"* 	c #D9F2FF",
"= 	c #DEE8F1",
"- 	c #F4B994",
"; 	c #E5DBDA",
"> 	c #DBEEFA",
", 	c #DAEFFB",
"' 	c #D9F1FE",
") 	c #DAF3FF",
"! 	c #E8D7D1",
"~ 	c #EDCCBD",
"{ 	c #E7D8D5",
"] 	c #F8BA7B",
"^ 	c #FEBC3B",
"/ 	c #F5BD92",
"( 	c #E1E2E7",
"_ 	c #D8F3FF",
": 	c #D8F2FF",
"< 	c #DFE7EF",
"[ 	c #FAA96A",
"} 	c #F8AE7A",
"| 	c #F4BA98",
"1 	c #F5B894",
"2 	c #F1C3AB",
"3 	c #DDEBF4",
"4 	c #E7D7D3",
"5 	c #F5B891",
"6 	c #F1C3AA",
"7 	c #DDEAF4",
"8 	c #EFC8B4",
"9 	c #F6B68D",
"0 	c #DBEEFB",
"a 	c #F7BD83",
"b 	c #FFBB00",
"c 	c #FFC800",
"d 	c #FFB80B",
"e 	c #F3C39E",
"f 	c #EDCBBD",
"g 	c #F0C7AF",
"h 	c #FDB84B",
"i 	c #FFB300",
"j 	c #FFB200",
"k 	c #FDB641",
"l 	c #EFC9B2",
"m 	c #DEE8F0",
"n 	c #E2E2E5",
"o 	c #F4BB98",
"p 	c #FAA866",
"q 	c #DFE6ED",
"r 	c #E6D9D6",
"s 	c #E4DEDF",
"t 	c #ECCDBF",
"u 	c #DBEDF8",
"v 	c #E5DCDC",
"w 	c #F8BA7C",
"x 	c #FFBC00",
"y 	c #FFCE00",
"z 	c #FFCD00",
"A 	c #FFCC00",
"B 	c #FFB700",
"C 	c #FFAA00",
"D 	c #FFA900",
"E 	c #FFAF00",
"F 	c #FFC700",
"G 	c #FFCE01",
"H 	c #FFC900",
"I 	c #FFB328",
"J 	c #EFCEB8",
"K 	c #E5DDDD",
"L 	c #EAD2C8",
"M 	c #F1C2A8",
"N 	c #E9D4CD",
"O 	c #F8B07C",
"P 	c #EECAB8",
"Q 	c #DCEDF8",
"R 	c #E3DFE0",
"S 	c #FAB36E",
"T 	c #FFBF04",
"U 	c #F7C500",
"V 	c #EEBE00",
"W 	c #EEBD00",
"X 	c #F7C400",
"Y 	c #FFCA00",
"Z 	c #FFCB17",
"` 	c #FFD13F",
" .	c #FFD245",
"..	c #F7C830",
"+.	c #EEBB05",
"@.	c #EDA22F",
"#.	c #F69B2C",
"$.	c #E6DAD6",
"%.	c #FAAA6C",
"&.	c #FF9800",
"*.	c #EDCBBB",
"=.	c #FEC223",
"-.	c #FDC800",
";.	c #0E0800",
">.	c #0B0400",
",.	c #040200",
"'.	c #050200",
").	c #030100",
"!.	c #010100",
"~.	c #FBC900",
"{.	c #FACD3D",
"].	c #FAE191",
"^.	c #FBE69D",
"/.	c #030201",
"(.	c #0B0500",
"_.	c #070400",
":.	c #060200",
"<.	c #000000",
"[.	c #FBBC3C",
"}.	c #FBAA60",
"|.	c #FE9C28",
"1.	c #FE9B24",
"2.	c #E7D8D4",
"3.	c #FCC800",
"4.	c #B96300",
"5.	c #D85200",
"6.	c #D75200",
"7.	c #B16200",
"8.	c #040300",
"9.	c #957A25",
"0.	c #968A5D",
"a.	c #010000",
"b.	c #BA7448",
"c.	c #D14F00",
"d.	c #CA4D00",
"e.	c #B96601",
"f.	c #FCB600",
"g.	c #FEA22D",
"h.	c #EECAB9",
"i.	c #DFE8EF",
"j.	c #D9F4FF",
"k.	c #EDCABC",
"l.	c #FCCA00",
"m.	c #0E0900",
"n.	c #7A1D00",
"o.	c #D54A00",
"p.	c #FF4A00",
"q.	c #E14700",
"r.	c #B84400",
"s.	c #050000",
"t.	c #973000",
"u.	c #E24600",
"v.	c #FFBC28",
"w.	c #F3C5A1",
"x.	c #E2E1E5",
"y.	c #CBE3F7",
"z.	c #E3E4E7",
"A.	c #F5C59E",
"B.	c #F5AC00",
"C.	c #D9AD00",
"D.	c #D5AA00",
"E.	c #020100",
"F.	c #903400",
"G.	c #BD2F00",
"H.	c #FC0200",
"I.	c #FF0000",
"J.	c #FF3D00",
"K.	c #FF5700",
"L.	c #F45000",
"M.	c #B02300",
"N.	c #E54800",
"O.	c #FF3E00",
"P.	c #F5C49D",
"Q.	c #E2E2E6",
"R.	c #DAF0FE",
"S.	c #CCE1F4",
"T.	c #F4BE9D",
"U.	c #F8AE01",
"V.	c #D3A300",
"W.	c #060100",
"X.	c #DD5400",
"Y.	c #FC5E00",
"Z.	c #FC4E00",
"`.	c #FF0E00",
" +	c #FF0900",
".+	c #FF1100",
"++	c #FE0F00",
"@+	c #FB0300",
"#+	c #FE0C00",
"$+	c #030000",
"%+	c #F3BC9C",
"&+	c #CDE1F4",
"*+	c #F6BC97",
"=+	c #AA6700",
"-+	c #020000",
";+	c #E55C00",
">+	c #EA5B00",
",+	c #F93D00",
"'+	c #FF2400",
")+	c #FF1F00",
"!+	c #FF0300",
"~+	c #C67900",
"{+	c #F5BA96",
"]+	c #F7BB96",
"^+	c #BA6800",
"/+	c #953800",
"(+	c #9E3800",
"_+	c #E61C00",
":+	c #F5BA95",
"<+	c #CCE2F6",
"[+	c #E8DBD7",
"}+	c #D9A789",
"|+	c #9D5D00",
"1+	c #AE4100",
"2+	c #ED2800",
"3+	c #E7D9D6",
"4+	c #CBE4F8",
"5+	c #E4E5E8",
"6+	c #E2B79F",
"7+	c #C87100",
"8+	c #F65100",
"9+	c #FF3000",
"0+	c #0C0200",
"a+	c #E3E4E8",
"b+	c #D1D7E5",
"c+	c #EBB593",
"d+	c #AF690B",
"e+	c #E65500",
"f+	c #EE2700",
"g+	c #FA0100",
"h+	c #FA0000",
"i+	c #EF0000",
"j+	c #EB0000",
"k+	c #EE0000",
"l+	c #F30000",
"m+	c #E20000",
"n+	c #E9B392",
"o+	c #E4A385",
"p+	c #AF733E",
"q+	c #150900",
"r+	c #110500",
"s+	c #6A2300",
"t+	c #7F0800",
"u+	c #E10000",
"v+	c #DD1D1D",
"w+	c #040101",
"x+	c #060101",
"y+	c #F70505",
"z+	c #180404",
"A+	c #030101",
"B+	c #AD703B",
"C+	c #F1B793",
"D+	c #D6CBD2",
"E+	c #DDA47E",
"F+	c #DB9900",
"G+	c #060400",
"H+	c #5C2200",
"I+	c #CA0000",
"J+	c #F60000",
"K+	c #D30000",
"L+	c #FEFEFE",
"M+	c #FFFFFF",
"N+	c #020202",
"O+	c #F7F7F7",
"P+	c #FCFBFB",
"Q+	c #0D0101",
"R+	c #230303",
"S+	c #F9F9F9",
"T+	c #010101",
"U+	c #FDFDFD",
"V+	c #0B0606",
"W+	c #DCA27D",
"X+	c #E4DBDA",
"Y+	c #F7BD99",
"Z+	c #E49800",
"`+	c #C81E00",
" @	c #F90000",
".@	c #B40000",
"+@	c #030404",
"@@	c #FBFBFB",
"#@	c #080909",
"$@	c #F6BB98",
"%@	c #940000",
"&@	c #FB0000",
"*@	c #0E0808",
"=@	c #FCFCFC",
"-@	c #070101",
";@	c #080202",
">@	c #050101",
",@	c #A90000",
"'@	c #C20000",
")@	c #EA0000",
"!@	c #E90000",
"~@	c #040100",
"{@	c #930000",
"]@	c #620000",
"^@	c #960000",
"/@	c #980000",
"(@	c #0A0300",
"_@	c #F7BB94",
":@	c #0D0400",
"<@	c #920001",
"[@	c #FD0000",
"}@	c #920000",
"|@	c #000101",
"1@	c #040404",
"2@	c #080A0A",
"3@	c #0A0B0B",
"4@	c #F6B993",
"5@	c #CCE2F5",
"6@	c #EECFC0",
"7@	c #CC9268",
"8@	c #DD0D00",
"9@	c #F80000",
"0@	c #BF0000",
"a@	c #0A0707",
"b@	c #040303",
"c@	c #EDCDBF",
"d@	c #DBF1FD",
"e@	c #EEC9B8",
"f@	c #D67D00",
"g@	c #E30000",
"h@	c #C40000",
"i@	c #0A0808",
"j@	c #050404",
"k@	c #EFCEBF",
"l@	c #DA8627",
"m@	c #980400",
"n@	c #E50000",
"o@	c #D03A3A",
"p@	c #020101",
"q@	c #0B0909",
"r@	c #0F0B0B",
"s@	c #070606",
"t@	c #060505",
"u@	c #0D0A0A",
"v@	c #E0E8EF",
"w@	c #E3C5B8",
"x@	c #CD7D28",
"y@	c #9B0000",
"z@	c #B70001",
"A@	c #C30000",
"B@	c #D70000",
"C@	c #D80000",
"D@	c #CF0000",
"E@	c #E0E8F0",
"F@	c #E8C4B2",
"G@	c #BB783D",
"H@	c #090200",
"I@	c #7C0001",
"J@	c #B90000",
"K@	c #BC0000",
"L@	c #120500",
"M@	c #1B0900",
"N@	c #C57F41",
"O@	c #CCE5F9",
"P@	c #DCF3FF",
"Q@	c #DEECF5",
"R@	c #F3C5AC",
"S@	c #F7BC96",
"T@	c #CE956C",
"U@	c #0D0500",
"V@	c #100500",
"W@	c #100600",
"X@	c #0E0500",
"Y@	c #130700",
"Z@	c #0F0500",
"`@	c #170800",
" #	c #120600",
".#	c #140800",
"+#	c #0C0400",
"@#	c #090300",
"##	c #BDD7F3",
"$#	c #CAE3F8",
"%#	c #CAE3F9",
"&#	c #CBE3F8",
"*#	c #DBBEBA",
"=#	c #E98F4F",
"-#	c #E99052",
";#	c #CDE6F9",
"  . + @ # # # # $ % & # # * = - ; @ > , ' # + > , ' # # # # ",
"  ) ! ~ @ # * { ] ^ / ( _ : < [ } | 1 2 3 : 4 5 6 7 : # # # ",
"  ) 8 9 0 # { a b c d e f f g h i i j k l m n o p q r s # # ",
"  ) ! t u v w x y z A B C D E F A z G H I J K L M N O P * # ",
"  . + Q R S T U V V V W X Y Z `  ...V V +.@.#./ $.%.&.*.* # ",
"  . # v S =.-.;.>.,.'.).!.~.{.].^./.(._.,.:.<.[.}.|.1.t * # ",
"  ) 2.w T 3.!.4.5.6.6.5.7.8.9.0.a.b.5.6.c.d.e.<.f.g.h.i.# # ",
"  j.k.D z l.m.n.o.p.p.p.q.r.s.<.t.u.p.p.p.o.n.,.-.v.w.x.: # ",
"y.z.A.B.C.D.E.F.G.H.I.I.J.K.L.M.N.O.I.I.H.G.F.E.D.C.B.P.Q.R.",
"S.T.U.V.:.W.X.Y.Z.`.I.I. +.+++@+#+ +I.I.`.Z.Y.X.$+).V.U.%+0 ",
"&+*+=+-+;+>+,+'+)+!+I.I.I.I.I.I.I.I.I.I.!+)+'+,+>+;+a.~+{+> ",
"&+]+^+a./+(+_+I.I.I.I.I.I.I.I.I.I.I.I.I.I.I.I._+(+/+a.^+:+> ",
"<+[+}+|+<.1+2+I.I.I.I.I.I.I.I.I.I.I.I.I.I.I.I.2+1+<.|+}+3++ ",
"4+5+6+7+-+8+9+I.I.I.I.I.I.I.I.I.I.I.I.I.I.I.I.9+8+0+7+6+a+# ",
"b+c+d+$+e+f+g+I.h+i+j+k+k+l+I.I.l+k+m+m+i+h+I.g+f+e+$+d+n+q ",
"o+p+q+r+s+t+u+I.v+$+w+-+x+-+y+y+$+z+A+A+w+v+I.u+t+s+<.).B+C+",
"D+E+F+G+H+I+J+K+a.L+M+N+O+P+Q+R+P+S+T+U+M+V+K+J+I+H+<.F+W+X+",
"<+Y+Z+).`+ @I..@+@L+M+U+L+L+@@L+U+L+L+M+M+#@.@I. @`+a.Z+$@@ ",
"&+*+).%@&@I.I.K+*@U+M+U+L+U+L+L+@@=@L+M+U+V+K+I.I.&@%@<.{+> ",
"&+*+).%@h+I.l+J+v+<.$+w+w+$+$+-@-@;@w+;@>@v+J+l+I.h+%@<.{+> ",
"&+*+).%@&@&@,@'@J+)@!@!@!@!@!@!@!@!@!@!@)@J+'@,@&@&@%@~@{+> ",
"&+*+,.%@&@&@{@]@^@/@/@/@/@/@/@/@/@/@/@/@/@^@]@{@&@&@%@(@{+> ",
"&+_@:@<@[@&@}@|@1@1@1@N+N+T+T+1@2@N+1@T+3@T+|@}@&@[@<@<.4@> ",
"5@6@7@-+8@9@0@a@M+M+L+M+L+L+U+U+U+L+L+L+L+M+b@0@9@8@<.7@c@@ ",
"4+d@e@f@<.g@h+h@i@U+U+U+=@U+L+L+=@=@U+L+L+j@h@h+g@-+f@e@+ # ",
"  ) k@l@a.m@n@J+o@1@T+p@p@1@q@r@s@1@t@T+u@o@J+n@m@a.l@k@* # ",
"  . v@w@x@a.y@z@A@B@C@C@C@C@C@C@C@C@B@D@B@A@z@y@<.x@w@v@# # ",
"  . : E@F@G@a.H@I@J@K@K@K@K@K@K@K@K@K@K@J@I@L@M@N@F@E@: # # ",
"O@P@. ) Q@R@S@T@U@'.V@W@X@Y@Z@`@ #.#+#@#).Y@T@S@R@Q@) . . . ",
"##O@$#%#&#S.S.*#=#-#-#-#-#-#-#-#-#-#-#-#-#=#*#S.S.&#%#$#$#;#"};
