/* XPM */
static char * quit_button_xpm[] = {
"125 39 50 1",
" 	c #D9F1FF",
".	c #0053A4",
"+	c #0066CC",
"@	c #0066CB",
"#	c #0065CC",
"$	c #0066CD",
"%	c #0065CB",
"&	c #0167CD",
"*	c #0067CC",
"=	c #0081DD",
"-	c #90CFF7",
";	c #DBE7FF",
">	c #FFFFFF",
",	c #DBE7EE",
"'	c #909DD5",
")	c #3A66CC",
"!	c #0065DD",
"~	c #B6E7FF",
"{	c #FFFFF7",
"]	c #9081CC",
"^	c #66CFF7",
"/	c #DBB6D5",
"(	c #0066D4",
"_	c #90E7FF",
":	c #B69DCC",
"<	c #0081E6",
"[	c #DBFFFF",
"}	c #DBCFDD",
"|	c #009DEE",
"1	c #0066DD",
"2	c #B6FFFF",
"3	c #FFFFEE",
"4	c #6666CC",
"5	c #FFCFDD",
"6	c #FFE7EE",
"7	c #0066D5",
"8	c #66B6F7",
"9	c #66CFFF",
"0	c #009CEE",
"a	c #FFE7E6",
"b	c #3AB6F7",
"c	c #DBB7D5",
"d	c #DBE7F7",
"e	c #0165CB",
"f	c #3A9DE6",
"g	c #1867CC",
"h	c #0081E7",
"i	c #0081D5",
"j	c #FFE7F7",
"k	c #B6E7F7",
"             ..................................................................................................              ",
"        .............................................................................................................        ",
"     ...................................................................................................................     ",
"   ..........++++++++++++++++++++++++++++++++++++++++++++++++++++++++++++++++++++++++++++++++++++++++++++++++++...........   ",
"  ......++++++++++++++++++++++++++++++++++++++++++++++++++++++++++++++++++++++++++++++++++++++++++++++++++++++++++++.......  ",
" ....++++++++++++++++++++++++++++++++++++++++++++++++++++++++++++++++++++++++++++++++++++++++++++++++++++++++++++++++++..... ",
"....+++++++++++++++++++++++++++++++++++++++++++++++++++++++++++++++++++++++++++++++++++++++++++++++++++++++++++++++++++++....",
"...+++++++++++++++++++++++++++++++++++++++++++++++++++++++++++++++++++++++++++++++++++++++++++++++++++++++++++++++++++++++...",
"...++++++++++++++++++++++++++++++++++++++++++++++++++@##++++++++++++@##+++@#+#++++++++++++++++++++++++++++++++++++++++++++...",
"...+++++++++++++++++++++++++@##++++++++++++++++++++++#+++$+++@++++++#+++++%#+++#++++++@##+++++++@##+++++++++++++++++++++++...",
"...+++++++++++++++++++++++++#+@##+++++@$++++++++++++++++++#++#++++++++++@%+++++++#+++@@@#+++++##++++++++++++++++++++++++++...",
"...+++++++++++++++++++++++++++#++++++++++++@#++#%#++++@#++##++++%##+++@#++++++++++++%@#++++++++++++++#++++++++++++++++++++...",
"...+++++++++++++++++++++++@#++++++&++++++++++++++++++@@+++++++++++++#+#+++++*++++++@#++++++++++++++++++#++++++++++++++++++...",
"...+++++++++++++++++++++++#+++++++++#++=-;>>>>,')++++!~>{]+++++^>>/++(_>{:*<[>>>>>>>>>>>}+++++++++++++++++++++++++++++++++...",
"...+++++++++++++++++++++++++++++++++++^>>>>>>>>>{]+++|>>>/++++12>>34+<[>>5@<[>>>>>>>>>>>}+++++++++++++++++#+++++++++++++++...",
"...+++++++++++++++++++++@#+++++++++++^>>>6'+78>>>{]++|>>>/++++12>>34+<[>>5++++++9>>{]++*++++++++++++++++++++++++++++++++++...",
"...++++++++++++++++++++@@+++++++++++<[>>34++++0>>>a)+|>>>/++++12>>34+<[>>5++++++9>>{]++++@@+++++++++++++++++++++++++++++++...",
"...+++++++++++++++++++@@++++++@##+++9>>>/+++++7_>>{]+|>>>/++++12>>34+<[>>5++*+++9>>{]+++@@++++++++++++++++++*+++++++++++++...",
"...+++++++++++++++++++#+++++++#++++7_>>{]++++++b>>>c+|>>>/++++12>>34+<[>>5++++++9>>{]+++#+++*+@+++++++++++++++++++++++++++...",
"...++++++++++++++++++++++++++++++*+12>>34++++++|>>>/+|>>>/++++12>>34+<[>>5++++++9>>{]++++++*@#++++++++++++++++++++++++++++...",
"...+++++++++++++++++++$+@+++++++*#+12>>34++++++|>>>/+|>>>/+++#12>>34+<[>>5++++++9>>{]++++++++++++*++++++++++++++++++++++++...",
"...+++++++++++++++++++++#+++++++#++7_>>{]+++#++b>>>/+|>>>/++++12>>34+<[>>5*+++++9>>{]+++++++++++*+++++++++++++++++++++++++...",
"...+++++++++++++++++++++++++++++++++b>>>/+|d,'7_>>>:+|>>>5++++12>>a)+<[>>5++++++9>>{]+++++++++*+*+++++++++++++++++++++++++...",
"...++++++++++++++++++++++++@e#++++++<[>>34|[>>>>>>34+<[>>a)+++|>>>5++<[>>5++++++9>>{]++++*++++++++++++++++++++++++++++++++...",
"...+++++++++++++++++++++@#++#++++++++b>>>{'7^>>>>>:+++9>>>5)+f[>>>:*+<[>>5++++++9>>{]++++++++++g++++++++++++++++++++++++++...",
"...+++++++++++++++++++++#+++++++++++++b>>>>>>>>>>{'+++1~>>>>>>>>>}+++h[>>5++++++9>>{]+++*++@++*+++++++++++++++++++++++++++...",
"...++++++++++++++++++++++++++++++++++++i^;>>>>jd>>>64++7fk>>>>{,'+++#7_>{:++*+++|[>a)++++*++++++++++++++++++++++++++++++++...",
"...+++++++++++++++++++++++++++++++++++++*+++++++f~>>:*++++++++++++++++++++*++++++++++++*++++++++++++++++++++++++++++++++++...",
"...++++++++++++++++++++++++++++++++*+++++++++++++++++++++++++++++++$+++$+++++++*+*++++*+++++++++++++++++++++++++++++++++++...",
"...+++++++++++++++++++++++++++*+++++++++++++++++++++++++++++++++++++++++#+++++++++++++++++++++++++++++++++++++++++++++++++...",
"...++++++++++++++++++++++++++++++++++++++++++++++++++++++++++++++++++++++$++++++++++++++++++++++++++++++++++++++++++++++++...",
"...+++++++++++++++++++++++++++++++++++++++++++++++++++++++++++++++++++++++++*+++++++++++++++++++++++++++++++++++++++++++++...",
"....+++++++++++++++++++++++++++++++++++++++++++++++++++++++++++++++++++++++++++++++++++++++++++++++++++++++++++++++++++++....",
" .....+++++++++++++++++++++++++++++++++++++++++++++++++++++++++++++++++++++++++++++++++++++++++++++++++++++++++++++++++..... ",
"  .......++++++++++++++++++++++++++++++++++++++++++++++++++++++++++++++++++++++++++++++++++++++++++++++++++++++++++........  ",
"   ..............++++++++++++++++++++++++++++++++++++++++++++++++++++++++++++++++++++++++++++++++++++++++++..............    ",
"      .................................................................................................................      ",
"         ..........................................................................................................          ",
"                  .........................................................................................                  "};
