/* XPM */
static char * red_cube_xpm[] = {
"30 30 37 1",
" 	c #EA889B",
".	c #FC8B8E",
"+	c #FA8A8E",
"@	c #EF8F9E",
"#	c #FF7977",
"$	c #FF6766",
"%	c #FF6968",
"&	c #EEA0AD",
"*	c #FF9897",
"=	c #FF7D7D",
"-	c #FF6A6A",
";	c #FF6C6C",
">	c #EEA1AE",
",	c #FFA9A8",
"'	c #FF9797",
")	c #FF7B7B",
"!	c #FFA9A7",
"~	c #FFA8A8",
"{	c #FF9A9A",
"]	c #FF7878",
"^	c #FF6D6D",
"/	c #FFA7A7",
"(	c #FF9C9C",
"_	c #FF6B6B",
":	c #FFA6A6",
"<	c #FFBDBD",
"[	c #FFCFCF",
"}	c #FFBCBC",
"|	c #FFCECE",
"1	c #EEA0AE",
"2	c #F0919F",
"3	c #FF7C79",
"4	c #FF6B68",
"5	c #FF6C6A",
"6	c #DF6D90",
"7	c #F06C7F",
"8	c #EE6B7F",
" .++++++++++++++++++++++++++. ",
"@#$%%%%%%%%%%%%%%%%%%%%%%%%$#@",
"&*=-;;;;;;;;;;;;;;;;;;;;;;-=*&",
">,');;;;;;;;;;;;;;;;;;;;;;)',>",
">!~{]^;;;;;;;;;;;;;;;;;;^]{~!>",
">!~/(];;;;;;;;;;;;;;;;;;](/~!>",
">!~~/{)-______________-){/~~!>",
">!~~~~'{/::::::::::::/{'~~~~!>",
">!~~~~~<[[[[[[[[[[[[[[<~~~~~!>",
">!~~~~~}||||||||||||||}~~~~~!>",
">!~~~~~}||||||||||||||}~~~~~!>",
">!~~~~~}||||||||||||||}~~~~~!>",
">!~~~~~}||||||||||||||}~~~~~!>",
">!~~~~~}||||||||||||||}~~~~~!>",
">!~~~~~}||||||||||||||}~~~~~!>",
">!~~~~~}||||||||||||||}~~~~~!>",
">!~~~~~}||||||||||||||}~~~~~!>",
">!~~~~~}||||||||||||||}~~~~~!>",
">!~~~~~}||||||||||||||}~~~~~!>",
">!~~~~~}||||||||||||||}~~~~~!>",
">!~~~~~}||||||||||||||}~~~~~!>",
">!~~~~~<[[[[[[[[[[[[[[<~~~~~!>",
">!~~~~'{/::::::::::::/{'~~~~!>",
">!~~/{)-______________-){/~~!>",
">!~/(];;;;;;;;;;;;;;;;;;](/~!>",
">!~{]^;;;;;;;;;;;;;;;;;;^]{~!>",
">,');;;;;;;;;;;;;;;;;;;;;;)',>",
"1*=-;;;;;;;;;;;;;;;;;;;;;;-=*1",
"234555555555555555555555555432",
"678888888888888888888888888876"};
