/* XPM */
static char * finish_button_xpm[] = {
"125 39 53 1",
" 	c #D9F1FF",
".	c #0053A4",
"+	c #0066CC",
"@	c #0066CB",
"#	c #0066CD",
"$	c #0081E6",
"%	c #DBFFFF",
"&	c #FFFFFF",
"*	c #B69DD5",
"=	c #0066D5",
"-	c #66CFFF",
";	c #FFFFF7",
">	c #B69DCC",
",	c #0066DD",
"'	c #B6E7FF",
")	c #FFCFDD",
"!	c #66B6EE",
"~	c #DBE7FF",
"{	c #DBE7EE",
"]	c #6681D5",
"^	c #FFE7EE",
"/	c #6666CC",
"(	c #009DEE",
"_	c #FFE7E6",
":	c #3A66CC",
"<	c #3AB6F7",
"[	c #B6FFFF",
"}	c #FFFFEE",
"|	c #FFCFDE",
"1	c #DBB6D5",
"2	c #0067CC",
"3	c #9081CC",
"4	c #3A9DE6",
"5	c #DBB6DD",
"6	c #3A9DDD",
"7	c #669DDD",
"8	c #6681CC",
"9	c #6667CC",
"0	c #90B6DD",
"a	c #6681E6",
"b	c #0067DD",
"c	c #90CFF7",
"d	c #6666CD",
"e	c #66B6F7",
"f	c #DBE7F7",
"g	c #0081DD",
"h	c #B69DCD",
"i	c #90E7FF",
"j	c #0066DE",
"k	c #66CFF7",
"l	c #DBCFDD",
"m	c #3AB7F7",
"n	c #909DD5",
"             ..................................................................................................              ",
"        .............................................................................................................        ",
"     ...................................................................................................................     ",
"   ..........++++++++++++++++++++++++++++++++++++++++++++++++++++++++++++++++++++++++++++++++++++++++++++++++++...........   ",
"  ......++++++++++++++++++++++++++++++++++++++++++++++++++++++++++++++++++++++++++++++++++++++++++++++++++++++++++++.......  ",
" ....++++++++++++++++++++++++++++++++++++++++++++++++++++++++++++++++++++++++++++++++++++++++++++++++++++++++++++++++++..... ",
"....+++++++++++++++++++++++++++++++++++++++++++++++++++++++++++++++++++++++++++++++++++++++++++++++++++++++++++++++++++++....",
"...+++++++++++++++++++++++++++++++++++++++++++++++++++++++++++++++++++++++++++++++++++++++++++++++++++++++++++++++++++++++...",
"...+++++++++++++++++++++++++++++++++++++++++++++++++++++++++++++++++++++++++++++++++++++++++++++++++++++++++++++++++++++++...",
"...++++++++++++++++++++++++++++++++++++++++++++++++++++@##++++++++++++++++++++++++++++++++++++++++++++++++++++++++++++++++...",
"...+++++++++++++++++++++++++++++++++++@#+++++++++++++++++++++++#+++++++++++++++++++++++++++@#++#++++++++++++++++++++++++++...",
"...+++++++++++++++++++++++++++@#+++++++++++++++++++++++++++++@#+++++++++#++++++++++++++++#++++++++++++++++++++++++++++++++...",
"...+++++++++++++++++++++++++$%&&&&&&&&*+=-&;>++,'&;>++++$%&)++=-&;>+++=!~&&&&{]+++$%&^/++++(%&_:++++++++++++++++++++++++++...",
"...+++++++++++++++++++++++++<&&&&&&&&&*+,[&&)++(&&&}/++@<&&}/+,[&&|++,'&&&&&&&&1++(&&&>++++<&&}/2+++++++++++++++++++++++++...",
"...+++++++++++++++++++++++++<&&;3+++++++,[&&)++(&&&&_:++<&&}/+,[&&)++<&&;*24%&&}/+(&&&>++++<&&}/++++++++++++++++++++++++++...",
"...++++++++++++++++++++++++@<&&;3+++++++,[&&)++(&&&&&1++<&&}/+,[&&)++-&&_:++<&&;3+(&&&>++++<&&}/++++++++++++++++++++++++++...",
"...+++++++++++++++++++++++@+<&&;3+++++++,[&&)++(&&&&&&>+<&&}/+,[&&)2+<&&&5:++678++(&&&>++++<&&}9++++++++++++++++++++++++++...",
"...+++++++++++++++++++++++++<&&&&&&&&1++,[&&)++(&&;~&&}/<&&}/+,[&&)++,'&&&&&{0:+++(&&&&&&&&&&&}/++++++++++++++++++++++++++...",
"...+++++++++++++++++++++++++<&&&&&&&&1++,[&&)++(&&}a%&&)<&&}/+b[&&)+++=!%&&&&&&1++(&&&&&&&&&&&}/++++++++++++++++++++++++++...",
"...+++++++++++++++++++++++++<&&;3+++++++,[&&)++(&&}/<&&&&&&}/2,[&&)++++++=4c%&&&>+(&&&>++++<&&}/++++++++++++++++++++++++++...",
"...+++++++++++++++++++++++++<&&;3+++++++,[&&)++(&&}d@-&&&&&}/+,[&&)++ef{/+++g[&&)+(&&&h+++#<&&}/++++++++++++++++++++++++++...",
"...+++++++++++++++++++++++++<&&;3+++++++,[&&)++(&&}/+,[&&&&}/+,[&&)+,[&&)+++=i&&)+(&&&>++#+<&&}/++++++++++++++++++++++++++...",
"...+++++++++++++++++++++++++<&&;3+++++++,[&&)++(&&}/++(&&&&}/+j[&&)++-&&&5:=k&&&>+(&&&>++++<&&}/++++++++++++++++++++++++++...",
"...+++++++++++++++++++++++++<&&;3+++++++,[&&)+@(&&}/+++<&&&}/+,[&&)++=i&&&&&&&&l+@(&&;32+++m&&}/++++++++++++++++++++++++++...",
"...+++++++++++++++++++++++++$%&_:++++++++k&;>+#$%&_:+++=c&&l+++k&;>+++=!~&&&&{n@#+$%&^9++++(%&_:++++++++++++++++++++++++++...",
"...+++++++++++++++++++++++++++++++++++++++++++2+++++++++++++++++#++++++22+++2@#+++++2+++++2+++++++++++++++++++++++++++++++...",
"...++++++++++++++++++++++++++++++++++++++2+++++++++++++++2+++++++++++++++++++++++++2+++++2++++++++++++++++++++++++++++++++...",
"...+++++++++++++++++++++++++++2++++++++++++++++++++++++++++++++++++++++++++++++++2++++++++++++++++++++++++++++++++++++++++...",
"...++++++++++++++++++++++++++++++++++++++++++++++++++++++++++++++++#+++++++++++2++++++++++++++++++++++++++++++++++++++++++...",
"...+++++++++++++++++++++++++++++++++++++++++++++++++++++++++++++++++++++++++++++++++++++++++++++++++++++++++++++++++++++++...",
"...+++++++++++++++++++++++++++++++++++++++++++++++++++++++++++++++++++++++++++++++++++++++++++++++++++++++++++++++++++++++...",
"...+++++++++++++++++++++++++++++++++++++++++++++++++++++++++++++++++++++++++++++++++++++++++++++++++++++++++++++++++++++++...",
"....+++++++++++++++++++++++++++++++++++++++++++++++++++++++++++++++++++++++++++++++++++++++++++++++++++++++++++++++++++++....",
" .....+++++++++++++++++++++++++++++++++++++++++++++++++++++++++++++++++++++++++++++++++++++++++++++++++++++++++++++++++..... ",
"  .......++++++++++++++++++++++++++++++++++++++++++++++++++++++++++++++++++++++++++++++++++++++++++++++++++++++++++........  ",
"   ..............++++++++++++++++++++++++++++++++++++++++++++++++++++++++++++++++++++++++++++++++++++++++++..............    ",
"      .................................................................................................................      ",
"         ..........................................................................................................          ",
"                  .........................................................................................                  "};
