/* XPM */
static char * level6_xpm[] = {
"121 26 41 1",
" 	c #D9F1FF",
".	c #D9F1FE",
"+	c #D9F0FF",
"@	c #D8F0FF",
"#	c #D8F1FF",
"$	c #D9F0FE",
"%	c #D9BCDD",
"&	c #5C48CC",
"*	c #5C85EE",
"=	c #C1F1FF",
"-	c #3F48CC",
";	c #3F67DD",
">	c #A9F1FF",
",	c #C1A1D5",
"'	c #A985D5",
")	c #3F48D5",
"!	c #77BCFF",
"~	c #C1BCDD",
"{	c #5C67CC",
"]	c #3F67D5",
"^	c #77BCF7",
"/	c #A985CC",
"(	c #3F48DD",
"_	c #D9F1EE",
":	c #7748CC",
"<	c #5CA1F7",
"[	c #91D7FF",
"}	c #5CA1EE",
"|	c #D9F1F7",
"1	c #3F67E6",
"2	c #3F85EE",
"3	c #C1A1DD",
"4	c #91BCF7",
"5	c #D9D7E6",
"6	c #5C67D5",
"7	c #9167CC",
"8	c #D9D7EE",
"9	c #7767CC",
"0	c #A9A1DD",
"a	c #5C67DD",
"b	c #A9D7FF",
"                       .          +                  @         @#                 .          .     $                     ",
"                                                                                                                         ",
"                                                                                                                         ",
"                                                                                                                         ",
"                                                                                                                         ",
"                       %&*=       %&-------;>,-*      ')! %&-------;> %&*=              ~{--]^                           ",
"                       /-(>       /--------;>/-(>    _:-< /--------;> /-(>             '------<                          ",
"                       /-(>       /-(>       %--!    %-)[ /-(>        /-(>            %--}=|'-1=                         ",
"                       /-(>       /-(>       _:-2    /-1= /-(>        /-(>            /-2                                ",
"                       /-(>       /-(>        ,-)[  _:-<  /-(>        /-(>           _:-<3&-;4                           ",
"                       /-(>       /--------<  5&-<  %-)[  /--------<  /-(>           _:-6-----!                          ",
"                       /-(>       /--------<  |7-1=|7-2   /--------<  /-(>           5&--^ 87-(>                         ",
"                       /-(>       /-(>         ,-)[5&-!   /-(>        /-(>           5&-2   5&)[                         ",
"                       /-(>       /-(>         _:-<,-(>   /-(>        /-(>           _:-<   _:-!                         ",
"                       /-(>       /-(>          /-;9-2    /-(>        /-(>           |7-2   5&)[                         ",
"                       /-(>       /-(>          %---)[    /-(>        /-(>            %--^ 87-1=                         ",
"                       /--------< /--------)[   _:--1=    /--------)[ /--------<      |7-----)[                          ",
"                       %&-------< %&-------)[    %&)[     %&-------)[ %&-------<       |0&--ab                           ",
"                                                                                                                         ",
"                                                                                                                         ",
"                                                                                                                         ",
"                                                                                                                         ",
"                                                                                                                         ",
"                                                                                                                         ",
"                                                                                                                         ",
"                                                                                                                         "};
