/* XPM */
static char * level8_xpm[] = {
"121 26 35 1",
" 	c #D9F1FF",
".	c #D9F1FE",
"+	c #D9F0FF",
"@	c #D8F0FF",
"#	c #D8F1FF",
"$	c #D9F0FE",
"%	c #D9BCDD",
"&	c #5C48CC",
"*	c #5C85EE",
"=	c #C1F1FF",
"-	c #3F48CC",
";	c #3F67DD",
">	c #A9F1FF",
",	c #C1A1D5",
"'	c #A985D5",
")	c #3F48D5",
"!	c #77BCFF",
"~	c #D9F1F7",
"{	c #5C85E6",
"]	c #A9D7FF",
"^	c #A985CC",
"/	c #3F48DD",
"(	c #D9F1EE",
"_	c #7748CC",
":	c #5CA1F7",
"<	c #7767CC",
"[	c #91D7FF",
"}	c #D9D7E6",
"|	c #3F85EE",
"1	c #3F67E6",
"2	c #D9D7EE",
"3	c #9185D5",
"4	c #9167CC",
"5	c #7767D5",
"6	c #5C67DD",
"                       .          +                  @         @#                 .          .     $                     ",
"                                                                                                                         ",
"                                                                                                                         ",
"                                                                                                                         ",
"                                                                                                                         ",
"                       %&*=       %&-------;>,-*      ')! %&-------;> %&*=             ~'---{]                           ",
"                       ^-/>       ^--------;>^-/>    (_-: ^--------;> ^-/>            (<-----)[                          ",
"                       ^-/>       ^-/>       %--!    %-)[ ^-/>        ^-/>            ,-/] }_-|                          ",
"                       ^-/>       ^-/>       (_-|    ^-1= ^-/>        ^-/>            ^-:   ^-|                          ",
"                       ^-/>       ^-/>        ,-)[  (_-:  ^-/>        ^-/>            ^-/] 2_-:                          ",
"                       ^-/>       ^--------:  }&-:  %-)[  ^--------:  ^-/>            ~3-----*                           ",
"                       ^-/>       ^--------:  ~4-1=~4-|   ^--------:  ^-/>            2<-----;>                          ",
"                       ^-/>       ^-/>         ,-)[}&-!   ^-/>        ^-/>           ~4-1] 2<-1=                         ",
"                       ^-/>       ^-/>         (_-:,-/>   ^-/>        ^-/>           }&-!   %-)[                         ",
"                       ^-/>       ^-/>          ^-;<-|    ^-/>        ^-/>           }&-!   %-)[                         ",
"                       ^-/>       ^-/>          %---)[    ^-/>        ^-/>           (_-;] 2_-/>                         ",
"                       ^--------: ^--------)[   (_--1=    ^--------)[ ^--------:      %-------!                          ",
"                       %&-------: %&-------)[    %&)[     %&-------)[ %&-------:       25---6]                           ",
"                                                                                                                         ",
"                                                                                                                         ",
"                                                                                                                         ",
"                                                                                                                         ",
"                                                                                                                         ",
"                                                                                                                         ",
"                                                                                                                         ",
"                                                                                                                         "};
