/* XPM */
static char * level9_xpm[] = {
"121 26 38 1",
" 	c #D9F1FF",
".	c #D9F1FE",
"+	c #D9F0FF",
"@	c #D8F0FF",
"#	c #D8F1FF",
"$	c #D9F0FE",
"%	c #D9BCDD",
"&	c #5C48CC",
"*	c #5C85EE",
"=	c #C1F1FF",
"-	c #3F48CC",
";	c #3F67DD",
">	c #A9F1FF",
",	c #C1A1D5",
"'	c #A985D5",
")	c #3F48D5",
"!	c #77BCFF",
"~	c #D9D7EE",
"{	c #7767D5",
"]	c #3F67D5",
"^	c #77A1F7",
"/	c #A985CC",
"(	c #3F48DD",
"_	c #D9F1EE",
":	c #7748CC",
"<	c #5CA1F7",
"[	c #3F85EE",
"}	c #91D7FF",
"|	c #3F67E6",
"1	c #D9F1F7",
"2	c #A9A1D5",
"3	c #9167CC",
"4	c #D9D7E6",
"5	c #C1BCDD",
"6	c #5C67CC",
"7	c #77BCF7",
"8	c #7767CC",
"9	c #91BCF7",
"                       .          +                  @         @#                 .          .     $                     ",
"                                                                                                                         ",
"                                                                                                                         ",
"                                                                                                                         ",
"                                                                                                                         ",
"                       %&*=       %&-------;>,-*      ')! %&-------;> %&*=             ~{--]^                            ",
"                       /-(>       /--------;>/-(>    _:-< /--------;> /-(>            %&-----[                           ",
"                       /-(>       /-(>       %--!    %-)} /-(>        /-(>           _:-|=12--!                          ",
"                       /-(>       /-(>       _:-[    /-|= /-(>        /-(>           %-)}  13-[                          ",
"                       /-(>       /-(>        ,-)}  _:-<  /-(>        /-(>           %-(>   /-(>                         ",
"                       /-(>       /--------<  4&-<  %-)}  /--------<  /-(>           %-)}  13-(>                         ",
"                       /-(>       /--------<  13-|=13-[   /--------<  /-(>           _:-|=12--(>                         ",
"                       /-(>       /-(>         ,-)}4&-!   /-(>        /-(>            ,-------(>                         ",
"                       /-(>       /-(>         _:-<,-(>   /-(>        /-(>             56-)7,-|=                         ",
"                       /-(>       /-(>          /-;8-[    /-(>        /-(>                 13-[                          ",
"                       /-(>       /-(>          %---)}    /-(>        /-(>           13-<  5-)}                          ",
"                       /--------< /--------)}   _:--|=    /--------)} /--------<      /------<                           ",
"                       %&-------< %&-------)}    %&)}     %&-------)} %&-------<       56--;9                            ",
"                                                                                                                         ",
"                                                                                                                         ",
"                                                                                                                         ",
"                                                                                                                         ",
"                                                                                                                         ",
"                                                                                                                         ",
"                                                                                                                         ",
"                                                                                                                         "};
