/* XPM */
static char * level3_xpm[] = {
"121 26 36 1",
" 	c #D9F1FF",
".	c #D9D8CF",
"+	c #314E9D",
"@	c #004F9D",
"#	c #006CCF",
"$	c #BAF1FF",
"%	c #004EBF",
"&	c #9BD8FF",
"*	c #D9BEBF",
"=	c #3189DF",
"-	c #BABECF",
";	c #576C9D",
">	c #006CAE",
",	c #57BEEF",
"'	c #BAA4AE",
")	c #004EAE",
"!	c #7AD8FF",
"~	c #57BEFF",
"{	c #9B899D",
"]	c #31A4EF",
"^	c #D9F1DF",
"/	c #574E9D",
"(	c #0089DF",
"_	c #31A4DF",
":	c #BAD8EF",
"<	c #7A6C9D",
"[	c #9BF1FF",
"}	c #D9F1EF",
"|	c #7A89AE",
"1	c #316CAE",
"2	c #316CBF",
"3	c #D9D8DF",
"4	c #BABEBF",
"5	c #BABEDF",
"6	c #9BBEDF",
"7	c #9BA4AE",
"                                                                                                                         ",
"                                                                                                                         ",
"                                                                                                                         ",
"                                                                                                                         ",
"                                                                                                                         ",
"                    .+@#$       .+@@@@@@@@%&.+@#$    *+@= .+@@@@@@@@%& .+@#$               -;@@@>,                       ",
"                    '@@)!       '@@@@@@@@@)!*@@@~    {@@#$'@@@@@@@@@)! '@@)!              '@@@@@@@]                      ",
"                    '@@)!       '@@)!       ^/@@(   ^/@@] '@@)!        '@@)!             ^/@@_:<@@%[                     ",
"                    '@@)!       '@@)!        {@@%[  *@@)! '@@)!        '@@)!             }|12[ *@@%[                     ",
"                    '@@)!       '@@)!        *@@@~  {@@#$ '@@)!        '@@)!                  3<@@(                      ",
"                    '@@)!       '@@@@@@@@@_  }<@@#$.+@@]  '@@@@@@@@@_  '@@)!               }<@@@@#$                      ",
"                    '@@)!       '@@@@@@@@@=   '@@)!'@@%[  '@@@@@@@@@=  '@@)!               }<@@@@@]                      ",
"                    '@@)!       '@@)!         .+@@_<@@(   '@@)!        '@@)!                   4@@@~                     ",
"                    '@@)!       '@@)!          {@@>+@@~   '@@)!        '@@)!             }56&  }<@@(                     ",
"                    '@@)!       '@@)!          *@@@@@#$   '@@)!        '@@)!             *@@#$ }<@@]                     ",
"                    '@@)!       '@@)!          ^/@@@@]    '@@)!        '@@)!             .+@@_:7@@@~                     ",
"                    '@@@@@@@@@= '@@@@@@@@@)~    {@@@)!    '@@@@@@@@@)~ '@@@@@@@@@=        '@@@@@@@=                      ",
"                    .+@@@@@@@@= .+@@@@@@@@)~    ^;@@]     .+@@@@@@@@)~ .+@@@@@@@@=         -;@@@>,                       ",
"                                                                                                                         ",
"                                                                                                                         ",
"                                                                                                                         ",
"                                                                                                                         ",
"                                                                                                                         ",
"                                                                                                                         ",
"                                                                                                                         ",
"                                                                                                                         "};
