/* XPM */
static char * lock_xpm[] = {
"30 30 224 2",
"  	c #918047",
". 	c #BBAE7F",
"+ 	c #BFB283",
"@ 	c #C0B384",
"# 	c #AE9E6C",
"$ 	c #806D37",
"% 	c #AB9951",
"& 	c #EFE19D",
"* 	c #FBF3C3",
"= 	c #FDF5C9",
"- 	c #FCF5C8",
"; 	c #F9EFB7",
"> 	c #D8C77F",
", 	c #8A773C",
"' 	c #A18305",
") 	c #E0C451",
"! 	c #F7EAA9",
"~ 	c #FEF6C7",
"{ 	c #FFF8CC",
"] 	c #FBF2BD",
"^ 	c #F1DE8B",
"/ 	c #CAAB2F",
"( 	c #866F2D",
"_ 	c #A18200",
": 	c #D8B51E",
"< 	c #E5C853",
"[ 	c #F6E8A4",
"} 	c #FEF6C6",
"| 	c #FFF7CA",
"1 	c #FDF4C1",
"2 	c #EFD97D",
"3 	c #E3C33D",
"4 	c #C6A413",
"5 	c #866F2C",
"6 	c #A18100",
"7 	c #D6B106",
"8 	c #DCB715",
"9 	c #E5C852",
"0 	c #F6E7A1",
"a 	c #FCF2BD",
"b 	c #EED87F",
"c 	c #E0BE32",
"d 	c #DCB605",
"e 	c #C5A106",
"f 	c #D6B107",
"g 	c #DBB507",
"h 	c #DCB611",
"i 	c #E9D066",
"j 	c #F5E69F",
"k 	c #FDF5C2",
"l 	c #FFF8CA",
"m 	c #FCF2BE",
"n 	c #F0DC86",
"o 	c #E1C03A",
"p 	c #DBB509",
"q 	c #DCB607",
"r 	c #DDB812",
"s 	c #E6CA53",
"t 	c #F5E596",
"u 	c #FCEEA1",
"v 	c #FEF0A1",
"w 	c #FAEBA1",
"x 	c #F0DE8D",
"y 	c #DFBD25",
"z 	c #DBB608",
"A 	c #DBB506",
"B 	c #DDB91D",
"C 	c #E6C536",
"D 	c #F7DA38",
"E 	c #FCDF38",
"F 	c #F9DC38",
"G 	c #F7D938",
"H 	c #F8DA38",
"I 	c #FBDE38",
"J 	c #FCE038",
"K 	c #EFD038",
"L 	c #DFBD30",
"M 	c #DBB609",
"N 	c #E2BD07",
"O 	c #F6D506",
"P 	c #FBDB06",
"Q 	c #F9D906",
"R 	c #E1BD07",
"S 	c #CCA607",
"T 	c #D4B006",
"U 	c #F0CF06",
"V 	c #FADA06",
"W 	c #ECCA07",
"X 	c #F6D505",
"Y 	c #FBDB05",
"Z 	c #F9D905",
"` 	c #E8C406",
" .	c #A58605",
"..	c #030201",
"+.	c #846705",
"@.	c #C8A606",
"#.	c #EECC05",
"$.	c #FADA05",
"%.	c #ECCA06",
"&.	c #DBB607",
"*.	c #E2C504",
"=.	c #C7AC03",
"-.	c #A98C05",
";.	c #110A01",
">.	c #000000",
",.	c #010100",
"'.	c #836604",
").	c #B79A04",
"!.	c #DEC204",
"~.	c #CBB103",
"{.	c #7F6E02",
"].	c #040301",
"^.	c #030200",
"/.	c #6C5E02",
"(.	c #A38E02",
"_.	c #010101",
":.	c #6B5E02",
"<.	c #C8AE13",
"[.	c #B4A660",
"}.	c #050503",
"|.	c #080805",
"1.	c #8F8A6C",
"2.	c #B7A53D",
"3.	c #DEC103",
"4.	c #FBDC1D",
"5.	c #FBE774",
"6.	c #918853",
"7.	c #060502",
"8.	c #46422C",
"9.	c #D0C47B",
"0.	c #F9E253",
"a.	c #FBDB03",
"b.	c #FBDB07",
"c.	c #FCDE19",
"d.	c #928111",
"e.	c #060500",
"f.	c #473E0A",
"g.	c #D2B91E",
"h.	c #FBDC13",
"i.	c #FCDC04",
"j.	c #927F02",
"k.	c #060400",
"l.	c #473C00",
"m.	c #D2B602",
"n.	c #FBDB04",
"o.	c #FCDC05",
"p.	c #927F03",
"q.	c #473C01",
"r.	c #D2B704",
"s.	c #917E01",
"t.	c #010000",
"u.	c #363000",
"v.	c #D2B603",
"w.	c #A28F20",
"x.	c #13130E",
"y.	c #524B23",
"z.	c #D8BD11",
"A.	c #FBDB00",
"B.	c #F4E172",
"C.	c #F0E8B4",
"D.	c #F1E49C",
"E.	c #F7DC3E",
"F.	c #DAB407",
"G.	c #E1BC07",
"H.	c #F4D205",
"I.	c #F8D805",
"J.	c #F8D803",
"K.	c #FADD39",
"L.	c #FAE15B",
"M.	c #FADF4E",
"N.	c #F9DA1E",
"O.	c #EAC806",
"P.	c #D4AE07",
"Q.	c #CBA507",
"R.	c #D3AF06",
"S.	c #D6B206",
"T.	c #D6B207",
"U.	c #D6B203",
"V.	c #D6B100",
"W.	c #D6B200",
"X.	c #D6B205",
"Y.	c #CFA907",
"Z.	c #CAA407",
"`.	c #D9B307",
" +	c #DBB407",
".+	c #D3AC07",
"++	c #C49C07",
"@+	c #B38A08",
"#+	c #B18808",
"$+	c #B08708",
"%+	c #B78F08",
"&+	c #CCA507",
"*+	c #D6B007",
"=+	c #D5AF07",
"-+	c #BF9807",
";+	c #AE8508",
">+	c #AF8608",
",+	c #B58D08",
"'+	c #D7B107",
")+	c #D6AF07",
"!+	c #C19A07",
"~+	c #B28A08",
"{+	c #B89008",
"]+	c #CBA407",
"^+	c #A08100",
"/+	c #BA9208",
"(+	c #C9A207",
"_+	c #C19D06",
":+	c #997A00",
"<+	c #BE9807",
"[+	c #AE8608",
"}+	c #B69107",
"|+	c #836C2C",
"1+	c #856600",
"2+	c #9F7A07",
"3+	c #9F7907",
"4+	c #A07A07",
"5+	c #987507",
"6+	c #7C662C",
"7+	c #6A551F",
"8+	c #6F5920",
"9+	c #705920",
"0+	c #6E5820",
"a+	c #706037",
"  . + + + + + + + + + + + + + + + + + + + + + + + + + @ # $ ",
"% & * = = = = = = = = = = = = = = = = = = = = = = = - ; > , ",
"' ) ! ~ { { { { { { { { { { { { { { { { { { { { { { ] ^ / ( ",
"_ : < [ } { { { { { { { { { { { { { { { { { { { | 1 2 3 4 5 ",
"6 7 8 9 0 | { { { { { { { { { { { { { { { { { { a b c d e 5 ",
"6 f g h i j k l l l l l l l l l l l l l l l | m n o p q e 5 ",
"6 f g g r s t u v v v v v v v v v v v v v v w x y z g q e 5 ",
"6 f g g A B C D E E E E E F G H I E E E E J K L M g g q e 5 ",
"6 f g g g g N O P P P P Q R S T U V P P P P W z g g g q e 5 ",
"6 f g g g g N X Y Y Y Z `  ...+.@.#.$.Y Y Y %.&.g g g q e 5 ",
"6 f g g g g N X Y Y *.=.-.;.>.,.'.).!.Y Y Y %.&.g g g q e 5 ",
"6 f g g g g N X Y Y ~.{.].,.>.^.,./.(.Y Y Y %.&.g g g q e 5 ",
"6 f g g g g N X Y Y ~.{.]._.>._._.:.(.Y Y Y %.&.g g g q e 5 ",
"6 f g g g g N X Y Y *.<.[.}.>.|.1.2.3.Y Y Y %.&.g g g q e 5 ",
"6 f g g g g N X Y Y Y 4.5.6.7.8.9.0.a.Y Y Y %.&.g g g q e 5 ",
"6 f g g g g N X Y Y Y b.c.d.e.f.g.h.Y Y Y Y %.&.g g g q e 5 ",
"6 f g g g g N X Y Y Y Y i.j.k.l.m.n.Y Y Y Y %.&.g g g q e 5 ",
"6 f g g g g N X Y Y Y Y o.p.k.q.r.Y Y Y Y Y %.&.g g g q e 5 ",
"6 f g g g g N X Y Y Y Y o.s.t.u.v.Y Y Y Y Y %.&.g g g q e 5 ",
"6 f g g g g N X Y Y Y Y i.w.x.y.z.Y Y Y Y Y %.&.g g g q e 5 ",
"6 f g g g g N X Y Y Y Y A.B.C.D.E.P Y Y Y Y %.&.g g g q e 5 ",
"6 f g g g F.G.H.I.I.I.I.J.K.L.M.N.I.I.I.I.Z O.g g g g q e 5 ",
"6 f g g g P.Q.R.S.S.S.S.T.U.V.W.X.S.S.S.S.S.Y.Z.`.g g q e 5 ",
"6 f g  +.+++@+#+#+#+#+#+#+#+#+#+#+#+#+#+#+#+$+%+&+*+g q e 5 ",
"6 f F.=+-+$+;+;+;+;+;+;+;+;+;+;+;+;+;+;+;+;+;+>+,+Q.'+q e 5 ",
"6 *+)+!+~+;+;+;+;+;+;+;+;+;+;+;+;+;+;+;+;+;+;+;+$+{+]+`.e 5 ",
"^+Y.!+~+;+;+;+;+;+;+;+;+;+;+;+;+;+;+;+;+;+;+;+;+;+;+/+(+_+5 ",
":+<+#+;+;+;+;+;+;+;+;+;+;+;+;+;+;+;+;+;+;+;+;+;+;+;+[+{+}+|+",
"1+2+3+3+3+3+3+3+3+3+3+3+3+3+3+3+3+3+3+3+3+3+3+3+3+3+3+4+5+6+",
"7+8+8+8+8+8+8+8+8+8+8+8+8+8+8+8+8+8+8+8+8+8+8+8+8+8+8+9+0+a+"};
