/* XPM */
static char * side_cube_xpm[] = {
"40 40 295 2",
"  	c #7DBBF6",
". 	c #7BB8F1",
"+ 	c #7BB6EE",
"@ 	c #7FB6EC",
"# 	c #82B7EB",
"$ 	c #82B6E8",
"% 	c #82B6E6",
"& 	c #83B7E7",
"* 	c #83B8EA",
"= 	c #80B8EB",
"- 	c #80B8E9",
"; 	c #83B9E8",
"> 	c #82B7E9",
", 	c #81B9EC",
"' 	c #7FB9E9",
") 	c #7EBBE7",
"! 	c #7DBCE5",
"~ 	c #7FBCE9",
"{ 	c #7FBBED",
"] 	c #7EBAEC",
"^ 	c #7EBAF0",
"/ 	c #80BCF2",
"( 	c #7BB9F4",
"_ 	c #7AB7F0",
": 	c #7AB5ED",
"< 	c #83B7E9",
"[ 	c #81B6E8",
"} 	c #7FB7EA",
"| 	c #7FB7E8",
"1 	c #81B7E6",
"2 	c #81B5E5",
"3 	c #80B5E7",
"4 	c #7FB4E6",
"5 	c #7EB6E9",
"6 	c #7DB5E8",
"7 	c #7CB6E6",
"8 	c #7BB8E4",
"9 	c #7AB9E4",
"0 	c #7BB8E5",
"a 	c #7CB9E8",
"b 	c #7BB7E9",
"c 	c #7AB6EA",
"d 	c #7AB6EC",
"e 	c #7CB7EF",
"f 	c #79B7F2",
"g 	c #78B5EE",
"h 	c #79B4EC",
"i 	c #84B9ED",
"j 	c #85B9EB",
"k 	c #84B8E8",
"l 	c #85B9E9",
"m 	c #82B8E7",
"n 	c #84B9EB",
"o 	c #85BAEC",
"p 	c #82BAEB",
"q 	c #7DBCE8",
"r 	c #7EBCEB",
"s 	c #7FBDEE",
"t 	c #7DBBEE",
"u 	c #79B6EC",
"v 	c #79B6EF",
"w 	c #7EBBF4",
"x 	c #81BCF4",
"y 	c #89C0F6",
"z 	c #8FC4F8",
"A 	c #91C5F7",
"B 	c #91C5F5",
"C 	c #92C6F6",
"D 	c #90C5F7",
"E 	c #8EC6F9",
"F 	c #8EC6F7",
"G 	c #90C6F5",
"H 	c #90C5F9",
"I 	c #89C6F5",
"J 	c #87C5F4",
"K 	c #88C6F7",
"L 	c #88C6F9",
"M 	c #83C0F6",
"N 	c #7DBAF1",
"O 	c #7BB7F3",
"P 	c #7DB9F7",
"Q 	c #7DBAF3",
"R 	c #83BEF6",
"S 	c #8DC4FA",
"T 	c #95CAFE",
"U 	c #98CCFE",
"V 	c #98CCFC",
"W 	c #99CDFD",
"X 	c #97CCFE",
"Y 	c #95CDFF",
"Z 	c #95CDFE",
"` 	c #97CDFC",
" .	c #98CEFD",
"..	c #98CDFF",
"+.	c #97CBFD",
"@.	c #93CDFD",
"#.	c #8FCBFD",
"$.	c #8ECCFF",
"%.	c #8ECBFF",
"&.	c #87C4FD",
"*.	c #7EBAF6",
"=.	c #79B6F5",
"-.	c #7BB8F7",
";.	c #77B5F0",
">.	c #94CCFF",
",.	c #94CCFD",
"'.	c #99CDFF",
").	c #96D0FF",
"!.	c #92CEFF",
"~.	c #92D0FF",
"{.	c #91CEFF",
"].	c #89C6FF",
"^.	c #7EBAF8",
"/.	c #78B5F4",
"(.	c #7AB7F8",
"_.	c #86C1F9",
":.	c #91C8FE",
"<.	c #9ACFFF",
"[.	c #9CD0FF",
"}.	c #9BCFFF",
"|.	c #9ACEFE",
"1.	c #98D0FF",
"2.	c #97CFFF",
"3.	c #9AD0FF",
"4.	c #93CFFF",
"5.	c #94D0FF",
"6.	c #94CFFF",
"7.	c #8AC7FF",
"8.	c #7CB9F2",
"9.	c #84BFF7",
"0.	c #8FC6FC",
"a.	c #96CBFF",
"b.	c #96CAFA",
"c.	c #95C9F9",
"d.	c #96CBFD",
"e.	c #96CCFB",
"f.	c #94CEFE",
"g.	c #90CDFC",
"h.	c #7AB8F3",
"i.	c #85C0F8",
"j.	c #99CEFF",
"k.	c #96CEFF",
"l.	c #95CDFC",
"m.	c #90CCFF",
"n.	c #8BC8FF",
"o.	c #79B5F1",
"p.	c #7AB7F6",
"q.	c #77B7F5",
"r.	c #93CDFB",
"s.	c #8CC7FF",
"t.	c #7AB8F5",
"u.	c #97CBFB",
"v.	c #94CCFB",
"w.	c #92CCFE",
"x.	c #8CC8FE",
"y.	c #79B7F4",
"z.	c #98CCFB",
"A.	c #93CBFE",
"B.	c #8EC7FE",
"C.	c #7BB7F5",
"D.	c #97CAFF",
"E.	c #93CAFF",
"F.	c #8EC6FF",
"G.	c #99CBFC",
"H.	c #98CAFD",
"I.	c #98CBFF",
"J.	c #7AB5F1",
"K.	c #7BB7F6",
"L.	c #99CBFE",
"M.	c #95C9FF",
"N.	c #8FC5FF",
"O.	c #79B6F7",
"P.	c #99CBFF",
"Q.	c #7AB4F3",
"R.	c #97C9FA",
"S.	c #98CAFB",
"T.	c #9ACAFA",
"U.	c #94C9FF",
"V.	c #7AB6F4",
"W.	c #76B6F4",
"X.	c #98CBFA",
"Y.	c #99CCFB",
"Z.	c #7AB6F2",
"`.	c #92C9FF",
" +	c #8DC5FF",
".+	c #75B5F3",
"++	c #97CBFA",
"@+	c #8BC6FF",
"#+	c #78B8F6",
"$+	c #74B6F3",
"%+	c #9BCBFB",
"&+	c #91CAFF",
"*+	c #99CDFC",
"=+	c #98CEFC",
"-+	c #92CBFF",
";+	c #78B8F5",
">+	c #7CB8F4",
",+	c #86C1FB",
"'+	c #91C8FF",
")+	c #94C9FD",
"!+	c #9ACCFD",
"~+	c #98CBF8",
"{+	c #9ACDFC",
"]+	c #96CCFA",
"^+	c #94CDFA",
"/+	c #88C5FB",
"(+	c #7CBAF3",
"_+	c #74B4F1",
":+	c #7BB9F6",
"<+	c #7CBAF5",
"[+	c #90C9FF",
"}+	c #96CAFC",
"|+	c #97CAF9",
"1+	c #96CAF9",
"2+	c #95CBF9",
"3+	c #94CEFC",
"4+	c #95CFFF",
"5+	c #89C6FC",
"6+	c #7CBDF5",
"7+	c #77B7F4",
"8+	c #77B9F6",
"9+	c #79B9F7",
"0+	c #7CBAF7",
"a+	c #86C1FD",
"b+	c #90C8FF",
"c+	c #95CAFF",
"d+	c #95CAFC",
"e+	c #95CBFA",
"f+	c #93CBFA",
"g+	c #94CEFF",
"h+	c #88C5FC",
"i+	c #7BBCF6",
"j+	c #76B7F7",
"k+	c #84C0FC",
"l+	c #8DC8FF",
"m+	c #97CCFF",
"n+	c #95CCFF",
"o+	c #91CDFF",
"p+	c #8DCAFF",
"q+	c #85C3FC",
"r+	c #7ABBF5",
"s+	c #75B7F4",
"t+	c #74B5F5",
"u+	c #77B8F8",
"v+	c #81BFFC",
"w+	c #89C5FF",
"x+	c #8DC5FE",
"y+	c #8FC6FE",
"z+	c #90C7FD",
"A+	c #92CAFF",
"B+	c #8FCBFF",
"C+	c #84C2FD",
"D+	c #7CBCF9",
"E+	c #78B9F9",
"F+	c #77B8FA",
"G+	c #75B9F8",
"H+	c #74B8F7",
"I+	c #7DBDFB",
"J+	c #84C2FF",
"K+	c #84BFF9",
"L+	c #86BEF7",
"M+	c #85BDF6",
"N+	c #87BFFA",
"O+	c #85C0FA",
"P+	c #85C0FC",
"Q+	c #83C0F9",
"R+	c #88C0FB",
"S+	c #87C2FA",
"T+	c #87C3F9",
"U+	c #87C4FA",
"V+	c #87C4FB",
"W+	c #84C2FB",
"X+	c #7FBFFC",
"Y+	c #7CBCFA",
"Z+	c #79BAFC",
"`+	c #75BAFB",
" @	c #80BBF7",
".@	c #7EB9F3",
"+@	c #7CB7F3",
"@@	c #7DB7F6",
"#@	c #7CB8F6",
"$@	c #7CB8F7",
"%@	c #7DB8F4",
"&@	c #7DBBF4",
"*@	c #7EBCF7",
"=@	c #7DBBF8",
"-@	c #7ABAF8",
";@	c #79B9F9",
">@	c #78B9FB",
",@	c #79BAFE",
"'@	c #7ABBFB",
")@	c #80BEFB",
"!@	c #7BB9F2",
"~@	c #78B8F8",
"{@	c #78B9FD",
"  . + @ # $ % & * * = = - - ; ; & & & & & & > > > > * * , , = ' ) ! ~ ~ { ] ^ / ",
"( _ : @ # < % & [ [ } } | | 1 1 2 2 2 2 2 2 3 3 4 4 4 3 5 6 6 7 8 9 0 a b c d e ",
"f g h @ i j k l * > = = - - m ; & & & & & & > > n n o o o o i p ~ q r s t u v . ",
"  w x y z A B C D D E E F F G G B B B B B B D D D D D D D D H F I J K L M N O P ",
"( Q R S T U V W X X Y Y Z Z ` `  . . . . . .....X X U +.+.U U X @.#.$.%.&.*.=.-.",
";._ x S T U V V X X Y >.,.Z ` ` ` ` ` ` ` ` X X ....'.'.'.'.'...).!.~.{.].^./.(.",
"( w _.:.<.[.}.|.<.<.1.2.2.1.3.3.1.1.1.1.<.<.<.<.....U U U U '...).4.5.6.7.^./.(.",
"f 8.9.0.a.U b.c.d.d.>.>.,.,.e.e.,.,.,.,.d.d.d.d.X X +.+.+.+.U X f.g.!.4.7.*./.(.",
"h.8.i.:.T +.V b.j...k.k.k.k. . .k.k.k.k.........d.d.+.+.+.+.+.d.l.@.!.m.n.o.p.q.",
"h.8.i.:.T +.V b...X Y Y Z Z ` ` Z Z Z Z X X X X d.d.+.+.+.+.+.e.l.r.f.m.s.v t.q.",
"h.8.i.:.T +.V b.X X >.>.,.,.e.e.d.d.d.d.d.d.d.d.d.d.u.u.u.u.u.u.` v.Z w.x.v t.y.",
"h.8.i.:.T +.V b.X d.>.>.,.,.e.e.d.d.d.d.d.d.d.d.d.d.u.u.u.u.u.u.z.e.X A.B.v C.y.",
"h.8.i.:.T +.V b.X X >.>.,.,.e.e.+.D.+.+.+.+.d.d.d.d.e.e.e.e.e.u.V u.X E.F.v C.=.",
"h.8.i.:.T +.V b.X X Y >.,.,.` ` D.D.+.+.+.+.d.d.d.d.e.e.e.e.e.e.G.H.I.E.F.J.K.=.",
"h.8.i.:.T +.V b.X X Y >.,.,.e.` D.D.D.D.+.+.d.d.d.d.e.e.v.v.v.e.L.H.I.M.N.J.K.O.",
"h.8.i.:.T +.V b.U X a.d.d.e.u.u.+.+.D.+.+.+.+.d.+.d.u.e.e.e.e.u.G.H.P.M.N.Q.K.O.",
"h.8.i.:.T +.G.R.S.u.+.+.+.u.S.S.S.S.H.S.S.S.S.u.S.u.S.u.u.u.u.S.T.G.L.U.F.V.-.W.",
"h.8.i.:.T +.G.R.S.S.+.+.S.S.T.T.S.S.S.S.S.S.S.S.S.S.S.S.S.S.S.X.T.Y.L.U.F.Z.-.W.",
"h.8.i.:.T +.G.R.S.S.+.+.S.S.T.T.S.S.S.S.S.S.S.S.S.S.S.S.S.S.S.X.T.Y.L.U.F.Z.-.W.",
"h.8.i.:.T +.G.R.S.S.+.+.S.S.T.T.S.S.S.S.S.S.S.S.S.S.S.S.S.S.S.X.T.Y.U U.F.Z.-.W.",
"h.8.i.:.T +.G.R.S.S.+.+.S.S.T.T.S.S.S.S.S.S.S.S.S.S.S.S.S.S.S.X.X.Y.U `.F.Z.-.W.",
"h.8.i.:.T +.G.R.S.S.+.+.S.S.T.T.S.S.S.S.S.S.S.S.S.S.S.S.S.S.S.X.X.z.U `.F.Z.-.W.",
"h.8.i.:.T +.G.R.S.S.+.+.S.S.T.T.S.S.S.S.S.S.S.S.S.S.S.S.S.S.S.X.X.z.U `.F.Z.-.W.",
"h.8.i.:.T +.G.R.S.S.+.+.S.S.T.T.S.S.S.S.S.S.S.S.S.S.S.S.S.S.S.X.X.z.U `.F.Z.-.W.",
"h.8._.:.T +.G.S.S.S.+.+.S.S.T.T.S.S.S.S.S.S.S.S.S.S.S.S.S.S.S.X.X.z.U `. +Z.p..+",
"h.8._.:.T +.G.S.S.S.+.+.S.S.T.T.S.S.S.S.S.S.S.S.S.S.S.S.S.S.S.X.X.z.U `. +Z.p..+",
"h.8._.:.T +.G.S.S.S.+.+.S.S.T.T.S.u.u.u.u.u.u.u.u.u.u.u.u.u.u.++Y.z.U `.@+f #+$+",
"h.8._.:.T +.G.S.S.S.+.+.S.S.T.Y.S.u.u.u.u.u.u.u.u.u.u.u.u.u.u.++Y.z.X `.s.f #+$+",
"h.8._.:.T +.G.S.S.S.+.+.S.G.%+Y.G.V V V V V V V V V V V V V V z.z.z...&+s.f #+$+",
"h.8._.:.T +.G.S.S.S.+.+.G.G.%+Y.G.V V V V V V V V V V V V V V z.*+=+..-+s.f #+$+",
"h.8._.:.T +.G.S.S.S.+.+.G.G.%+Y.G.V V V V V V V V V V V V V V z.*+=+..-+s.f #+$+",
"h.8._.:.T +.G.S.S.S.+.V G.Y.%+Y.G.V V V V V V V V V V V V V V z.*+=+k.-+s.f ;+$+",
"t.>+,+'+)++.!+%+X.X.u.u.S.X.T.~+X.++++++++++++++++++Y.Y.Y.{+{+*+]+^+k.!./+(+_+$+",
":+<+,+[+)+}+G.S.R.b.b.b.b.|+|+|+1+2+b.2+b.1+b.1+u.++u.++S.++S.++l.3+4+!.5+6+7+8+",
"9+0+a+b+c++.'.U }+d+d+d+d+}+}+b.e+f+d+f+d+e+d+e+d.e.d.e.+.e+}+e+Z f.g+m.h+i+W.j+",
"#+9+k+l+`.a.....m+n+n+n+n+m+m+m+k.4+k.4+k.k.k.k.Y Y m+Y m+Y m+Y g+!.o+p+q+r+s+t+",
"u+8+v+w+x+y+'+z+E.-+A+A+A+E.E.-+-+m.-+m.-+-+-+-+&+&+`.-+E.-+E.-+-+m.B+n.C+D+E+F+",
"G+H+I+J+K+L+L+M+N+O+P+P+P+P+O+O+K+Q+Q+Q+K+Q+K+K+K+O+O+O+R+,+R+S+T+U+V+W+X+Y+Z+Z+",
"`+H+Y+v+ @.@.@+@@@#@$@$@$@$@#@#@h.h.h.h.O h.O O O O >+>+%@>+%@>+w &@*@=@-@;@>@,@",
"`+H+'@)@^.+@+@J.K.K.(.(.(.(.K.p.t.;+t.t.t.t.t.t.t.t.C.C.C.C.C.O h.!@0+:+~@;@{@{@"};
