/* XPM */
static char * start_button_xpm[] = {
"125 39 44 1",
" 	c #D9F1FF",
".	c #0053A4",
"+	c #0066CC",
"@	c #0066D5",
"#	c #66B6EE",
"$	c #DBE7FF",
"%	c #FFFFFF",
"&	c #DBE7EE",
"*	c #6681D5",
"=	c #3AB6F7",
"-	c #FFFFF7",
";	c #9081CC",
">	c #FFE7EE",
",	c #6666CC",
"'	c #0081E6",
")	c #DBFFFF",
"!	c #DBCFDD",
"~	c #3A66CC",
"{	c #0066DD",
"]	c #B6E7FF",
"^	c #DBB6D5",
"/	c #FFCFDD",
"(	c #B69DD5",
"_	c #3A9DE6",
":	c #FFFFEE",
"<	c #0081DD",
"[	c #90E7FF",
"}	c #66CFFF",
"|	c #FFE7E6",
"1	c #B6FFFF",
"2	c #009DEE",
"3	c #DBB6DD",
"4	c #3A9DDD",
"5	c #669DDD",
"6	c #6681CC",
"7	c #B69DCC",
"8	c #90B6DD",
"9	c #3A9DEE",
"0	c #90CFF7",
"a	c #DBCFE6",
"b	c #66B6F7",
"c	c #DBE7F7",
"d	c #66CFF7",
"e	c #909DD5",
"             ..................................................................................................              ",
"        .............................................................................................................        ",
"     ...................................................................................................................     ",
"   ..........++++++++++++++++++++++++++++++++++++++++++++++++++++++++++++++++++++++++++++++++++++++++++++++++++...........   ",
"  ......++++++++++++++++++++++++++++++++++++++++++++++++++++++++++++++++++++++++++++++++++++++++++++++++++++++++++++.......  ",
" ....++++++++++++++++++++++++++++++++++++++++++++++++++++++++++++++++++++++++++++++++++++++++++++++++++++++++++++++++++..... ",
"....+++++++++++++++++++++++++++++++++++++++++++++++++++++++++++++++++++++++++++++++++++++++++++++++++++++++++++++++++++++....",
"...+++++++++++++++++++++++++++++++++++++++++++++++++++++++++++++++++++++++++++++++++++++++++++++++++++++++++++++++++++++++...",
"...+++++++++++++++++++++++++++++++++++++++++++++++++++++++++++++++++++++++++++++++++++++++++++++++++++++++++++++++++++++++...",
"...+++++++++++++++++++++++++++++++++++++++++++++++++++++++++++++++++++++++++++++++++++++++++++++++++++++++++++++++++++++++...",
"...+++++++++++++++++++++++++++++++++++++++++++++++++++++++++++++++++++++++++++++++++++++++++++++++++++++++++++++++++++++++...",
"...+++++++++++++++++++++++++++++++++++++++++++++++++++++++++++++++++++++++++++++++++++++++++++++++++++++++++++++++++++++++...",
"...++++++++++++++++++++++++++++@#$%%%%&*++=%%%%%%%%%%-;++++=%%>,+++++')%%%%%%%-!~+=%%%%%%%%%%-;+++++++++++++++++++++++++++...",
"...+++++++++++++++++++++++++++{]%%%%%%%%^+=%%%%%%%%%%-;+++')%%%/+++++=%%%%%%%%%%/+=%%%%%%%%%%-;+++++++++++++++++++++++++++...",
"...+++++++++++++++++++++++++++=%%-(+_)%%:,++++=%%-;+++++++=%%%%:,++++=%%-;++<[%%-;++++=%%-;+++++++++++++++++++++++++++++++...",
"...+++++++++++++++++++++++++++}%%|~++=%%-;++++=%%-;++++++{1%%%%%^++++=%%-;+++2%%%^++++=%%-;+++++++++++++++++++++++++++++++...",
"...+++++++++++++++++++++++++++=%%%3~++456+++++=%%-;++++++2%%%%%%|~+++=%%-;+++2%%%7++++=%%-;+++++++++++++++++++++++++++++++...",
"...+++++++++++++++++++++++++++{]%%%%%&8~++++++=%%-;++++++}%%|9%%%7+++=%%-;++<]%%-;++++=%%-;+++++++++++++++++++++++++++++++...",
"...++++++++++++++++++++++++++++@#)%%%%%%^+++++=%%-;+++++')%%7@[%%/+++=%%%%%%%%%%^+++++=%%-;+++++++++++++++++++++++++++++++...",
"...+++++++++++++++++++++++++++++++@_0)%%%7++++=%%-;+++++=%%:,+=%%-;++=%%%%%%%%a6++++++=%%-;+++++++++++++++++++++++++++++++...",
"...+++++++++++++++++++++++++++bc&,+++<1%%/++++=%%-;++++{1%%%%%%%%%^++=%%-;<]%%-7++++++=%%-;+++++++++++++++++++++++++++++++...",
"...++++++++++++++++++++++++++{1%%/+++@[%%/++++=%%-;++++2%%%%%%%%%%:,+=%%-;+{1%%-;+++++=%%-;+++++++++++++++++++++++++++++++...",
"...+++++++++++++++++++++++++++}%%%3~@d%%%7++++=%%-;+++@[%%:,+++2%%%7+=%%-;++2%%%:,++++=%%-;+++++++++++++++++++++++++++++++...",
"...+++++++++++++++++++++++++++@[%%%%%%%%!+++++=%%-;+++')%%^++++{1%%/+=%%-;+++=%%%^++++=%%-;+++++++++++++++++++++++++++++++...",
"...++++++++++++++++++++++++++++@#$%%%%&e++++++')%|~+++@[%:,+++++=%%^+')%|~+++@0%%^++++')%|~+++++++++++++++++++++++++++++++...",
"...+++++++++++++++++++++++++++++++++++++++++++++++++++++++++++++++++++++++++++++++++++++++++++++++++++++++++++++++++++++++...",
"...+++++++++++++++++++++++++++++++++++++++++++++++++++++++++++++++++++++++++++++++++++++++++++++++++++++++++++++++++++++++...",
"...+++++++++++++++++++++++++++++++++++++++++++++++++++++++++++++++++++++++++++++++++++++++++++++++++++++++++++++++++++++++...",
"...+++++++++++++++++++++++++++++++++++++++++++++++++++++++++++++++++++++++++++++++++++++++++++++++++++++++++++++++++++++++...",
"...+++++++++++++++++++++++++++++++++++++++++++++++++++++++++++++++++++++++++++++++++++++++++++++++++++++++++++++++++++++++...",
"...+++++++++++++++++++++++++++++++++++++++++++++++++++++++++++++++++++++++++++++++++++++++++++++++++++++++++++++++++++++++...",
"...+++++++++++++++++++++++++++++++++++++++++++++++++++++++++++++++++++++++++++++++++++++++++++++++++++++++++++++++++++++++...",
"....+++++++++++++++++++++++++++++++++++++++++++++++++++++++++++++++++++++++++++++++++++++++++++++++++++++++++++++++++++++....",
" .....+++++++++++++++++++++++++++++++++++++++++++++++++++++++++++++++++++++++++++++++++++++++++++++++++++++++++++++++++..... ",
"  .......++++++++++++++++++++++++++++++++++++++++++++++++++++++++++++++++++++++++++++++++++++++++++++++++++++++++++........  ",
"   ..............++++++++++++++++++++++++++++++++++++++++++++++++++++++++++++++++++++++++++++++++++++++++++..............    ",
"      .................................................................................................................      ",
"         ..........................................................................................................          ",
"                  .........................................................................................                  "};
