/* XPM */
static char * start_button_xpm[] = {
"140 40 32 1",
" 	c #D9F1FF",
".	c #3688D8",
"+	c #0066CC",
"@	c #BDDFF8",
"#	c #6CABE5",
"$	c #A2CEF2",
"%	c #7AB4E8",
"&	c #BFD8F2",
"*	c #FFFFFF",
"=	c #3F8CD8",
"-	c #0F6FCF",
";	c #CFE2F5",
">	c #5F9FDF",
",	c #EFF5FB",
"'	c #DFEBF8",
")	c #1F79D2",
"!	c #7FB2E5",
"~	c #8FBCE8",
"{	c #6FA8E2",
"]	c #9FC5EB",
"^	c #6CA6DB",
"/	c #005CB8",
"(	c #005EBD",
"_	c #2F82D5",
":	c #6CA2D2",
"<	c #0053A5",
"[	c #0057AE",
"}	c #87B5DD",
"|	c #367ABB",
"1	c #2874BD",
"2	c #0061C2",
"3	c #A2C9E8",
"                                                                                                                                            ",
"                                                                                                                                            ",
"                  ..........................................................................................................                ",
"                  ++++++++++++++++++++++++++++++++++++++++++++++++++++++++++++++++++++++++++++++++++++++++++++++++++++++++++                ",
"                  ++++++++++++++++++++++++++++++++++++++++++++++++++++++++++++++++++++++++++++++++++++++++++++++++++++++++++                ",
"                  ++++++++++++++++++++++++++++++++++++++++++++++++++++++++++++++++++++++++++++++++++++++++++++++++++++++++++                ",
"                  ++++++++++++++++++++++++++++++++++++++++++++++++++++++++++++++++++++++++++++++++++++++++++++++++++++++++++                ",
"            @#####++++++++++++++++++++++++++++++++++++++++++++++++++++++++++++++++++++++++++++++++++++++++++++++++++++++++++#####@          ",
"            $++++++++++++++++++++++++++++++++++++++++++++++++++++++++++++++++++++++++++++++++++++++++++++++++++++++++++++++++++++$          ",
"            $++++++++++++++++++++++++++++++++++++++++++++++++++++++++++++++++++++++++++++++++++++++++++++++++++++++++++++++++++++$          ",
"            $++++++++++++++++++++++++++++++++++++++++++++++++++++++++++++++++++++++++++++++++++++++++++++++++++++++++++++++++++++$          ",
"            $++++++++++++++++++++++++++++++++++++++++++++++++++++++++++++++++++++++++++++++++++++++++++++++++++++++++++++++++++++$          ",
"       @$$$$%++++++++++++++++++++++++++++++++++++++++++++++++++++++++++++++++++++++++++++++++++++++++++++++++++++++++++++++++++++%$$$$@     ",
"       #++++++++++++++++++++++++++++++++++++++++++++++++++++++++++++++++++++++++++++++++++++++++++++++++++++++++++++++++++++++++++++++#     ",
"       #++++++++++++++++++++++++++++++++++++++++++++++++++++++++++++++++++++++++++++++++++++++++++++++++++++++++++++++++++++++++++++++#     ",
"       #+++++++++++++++++++++++++++++++++++&****=++++**********+++++++*****++++=********+++**********+++++++++++++++++++++++++++++++++#     ",
"       #+++++++++++++++++++++++++++++++++-=;*&&&>=+++&&&,**'&&&+++++++*****++++=***&&&,*=)+&&&,**'&&&+++++++++++++++++++++++++++++++++#     ",
"       #+++++++++++++++++++++++++++++++++=***+++&*++++++&**!++++++++++*****++++=***+++&**!++++&**!++++++++++++++++++++++++++++++++++++#     ",
"       #+++++++++++++++++++++++++++++++++=***+++>!++++++&**!++++++++>!*&!'*!=++=***+++&**!++++&**!++++++++++++++++++++++++++++++++++++#     ",
"       #+++++++++++++++++++++++++++++++++=***+++++++++++&**!++++++++&**!+&**!++=***+++&**!++++&**!++++++++++++++++++++++++++++++++++++#     ",
"       #+++++++++++++++++++++++++++++++++++&****=+++++++&**!++++++++&**!+&**!++=********++++++&**!++++++++++++++++++++++++++++++++++++#     ",
"       #+++++++++++++++++++++++++++++++++++~&&'*{=++++++&**!++++++++&**]=;**!++=***&'***++++++&**!++++++++++++++++++++++++++++++++++++#     ",
"       #++++++++++++++++++++++++++++++++++++++!***++++++&**!++++++++&*******!++=***+!***++++++&**!++++++++++++++++++++++++++++++++++++#     ",
"       ^////(++++++++++++++++++++++++++++_&_++!***++++++&**!++++++_&,*=====*'&_=***+)=;*&>++++&**!+++++++++++++++++++++++++++++++(////^     ",
"       :<<<<[++++++++++++++++++++++++++++=*=++!***++++++&**!++++++=***+++++***==***+++&**!++++&**!+++++++++++++++++++++++++++++++[<<<<:     ",
"       :<<<<[++++++++++++++++++++++++++++++&****=+++++++&**!++++++=***+++++***==***+++++***=++&**!+++++++++++++++++++++++++++++++[<<<<:     ",
"       :<<<<[++++++++++++++++++++++++++++++~&&&&_+++++++~&&>++++++_&&&+++++&&&__&&&+++++&&&_++~&&>+++++++++++++++++++++++++++++++[<<<<:     ",
"       :<<<<[++++++++++++++++++++++++++++++++++++++++++++++++++++++++++++++++++++++++++++++++++++++++++++++++++++++++++++++++++++[<<<<:     ",
"       }||||122222++++++++++++++++++++++++++++++++++++++++++++++++++++++++++++++++++++++++++++++++++++++++++++++++++++++++++222221||||}     ",
"            3<<<<<++++++++++++++++++++++++++++++++++++++++++++++++++++++++++++++++++++++++++++++++++++++++++++++++++++++++++<<<<<3          ",
"            3<<<<<++++++++++++++++++++++++++++++++++++++++++++++++++++++++++++++++++++++++++++++++++++++++++++++++++++++++++<<<<<3          ",
"            3<<<<<++++++++++++++++++++++++++++++++++++++++++++++++++++++++++++++++++++++++++++++++++++++++++++++++++++++++++<<<<<3          ",
"            3<<<<<++++++++++++++++++++++++++++++++++++++++++++++++++++++++++++++++++++++++++++++++++++++++++++++++++++++++++<<<<<3          ",
"            3<<<<<++++++++++++++++++++++++++++++++++++++++++++++++++++++++++++++++++++++++++++++++++++++++++++++++++++++++++<<<<<3          ",
"                  <<<<<<<<<<<<<<<<<<<<<<<<<<<<<<<<<<<<<<<<<<<<<<<<<<<<<<<<<<<<<<<<<<<<<<<<<<<<<<<<<<<<<<<<<<<<<<<<<<<<<<<<<<                ",
"                  <<<<<<<<<<<<<<<<<<<<<<<<<<<<<<<<<<<<<<<<<<<<<<<<<<<<<<<<<<<<<<<<<<<<<<<<<<<<<<<<<<<<<<<<<<<<<<<<<<<<<<<<<<                ",
"                  <<<<<<<<<<<<<<<<<<<<<<<<<<<<<<<<<<<<<<<<<<<<<<<<<<<<<<<<<<<<<<<<<<<<<<<<<<<<<<<<<<<<<<<<<<<<<<<<<<<<<<<<<<                ",
"                  <<<<<<<<<<<<<<<<<<<<<<<<<<<<<<<<<<<<<<<<<<<<<<<<<<<<<<<<<<<<<<<<<<<<<<<<<<<<<<<<<<<<<<<<<<<<<<<<<<<<<<<<<<                ",
"                  <<<<<<<<<<<<<<<<<<<<<<<<<<<<<<<<<<<<<<<<<<<<<<<<<<<<<<<<<<<<<<<<<<<<<<<<<<<<<<<<<<<<<<<<<<<<<<<<<<<<<<<<<<                ",
"                  3333333333333333333333333333333333333333333333333333333333333333333333333333333333333333333333333333333333                "};
