/* XPM */
static char * water_xpm[] = {
"43 42 264 2",
"  	c #0060C7",
". 	c #0061C8",
"+ 	c #0162C9",
"@ 	c #0263CA",
"# 	c #0162CB",
"$ 	c #0261CB",
"% 	c #0160CA",
"& 	c #0463CD",
"* 	c #0061CA",
"= 	c #0263CC",
"- 	c #0362CC",
"; 	c #0063CB",
"> 	c #0063C9",
", 	c #0164CC",
"' 	c #0062CA",
") 	c #0062C7",
"! 	c #0061C6",
"~ 	c #0163C8",
"{ 	c #0264C9",
"] 	c #0365CA",
"^ 	c #0364CD",
"/ 	c #0264C7",
"( 	c #0163C6",
"_ 	c #0365C8",
": 	c #0062C5",
"< 	c #0060C3",
"[ 	c #0061C4",
"} 	c #005EC8",
"| 	c #0062C3",
"1 	c #0263C4",
"2 	c #0465C6",
"3 	c #0465C4",
"4 	c #0263C2",
"5 	c #005FBE",
"6 	c #0060BF",
"7 	c #0061C2",
"8 	c #0063C5",
"9 	c #0263CE",
"0 	c #005FCA",
"a 	c #005EC7",
"b 	c #005EC9",
"c 	c #0060C9",
"d 	c #0467CF",
"e 	c #0566C5",
"f 	c #0564C2",
"g 	c #005CB9",
"h 	c #0260BA",
"i 	c #0D68C1",
"j 	c #0765BD",
"k 	c #0462BC",
"l 	c #005FBB",
"m 	c #0064C6",
"n 	c #0065C9",
"o 	c #0064CB",
"p 	c #0062CB",
"q 	c #0163CE",
"r 	c #0162CD",
"s 	c #0061CC",
"t 	c #0364CF",
"u 	c #0769CC",
"v 	c #0768C7",
"w 	c #045FB8",
"x 	c #0D67BF",
"y 	c #0F68BC",
"z 	c #0861B5",
"A 	c #0661B4",
"B 	c #035DB3",
"C 	c #025DB6",
"D 	c #0362BE",
"E 	c #0063C1",
"F 	c #0061C3",
"G 	c #0269D2",
"H 	c #005FC8",
"I 	c #0363C9",
"J 	c #0361C1",
"K 	c #0663C0",
"L 	c #0662B9",
"M 	c #217ACE",
"N 	c #3F96E6",
"O 	c #3F94E4",
"P 	c #2A7FCF",
"Q 	c #1469B9",
"R 	c #0A61B1",
"S 	c #055EB2",
"T 	c #0A66BD",
"U 	c #0968C2",
"V 	c #0265C2",
"W 	c #0366CB",
"X 	c #0465CE",
"Y 	c #0465CC",
"Z 	c #0D68C3",
"` 	c #0860B9",
" .	c #0962B6",
"..	c #2379CC",
"+.	c #4EA3F3",
"@.	c #71C4FF",
"#.	c #7ACCFF",
"$.	c #74C6FF",
"%.	c #4092DE",
"&.	c #277AC8",
"*.	c #0C61B1",
"=.	c #025BAD",
"-.	c #035FB6",
";.	c #0361BB",
">.	c #005FBD",
",.	c #005DBE",
"'.	c #005FC6",
").	c #005FC0",
"!.	c #005EBA",
"~.	c #025AB1",
"{.	c #166BBC",
"].	c #3C8FDF",
"^.	c #64B5FF",
"/.	c #7AC9FF",
"(.	c #79C9FF",
"_.	c #78C6FF",
":.	c #76C6FF",
"<.	c #5DADF6",
"[.	c #3587D3",
"}.	c #156ABA",
"|.	c #085EB1",
"1.	c #0660B6",
"2.	c #0762BB",
"3.	c #0463BF",
"4.	c #0363C7",
"5.	c #0363CA",
"6.	c #0262C9",
"7.	c #005EC5",
"8.	c #0366C4",
"9.	c #096CCA",
"0.	c #1170CA",
"a.	c #378DE0",
"b.	c #4D9EEF",
"c.	c #65B4FF",
"d.	c #70BFFF",
"e.	c #6AB8FF",
"f.	c #5FADF5",
"g.	c #60ADF3",
"h.	c #67B6FB",
"i.	c #73C1FF",
"j.	c #71C1FF",
"k.	c #62B4FF",
"l.	c #4699E7",
"m.	c #287DCE",
"n.	c #146DC1",
"o.	c #0A64BA",
"p.	c #0563C5",
"q.	c #0466C9",
"r.	c #0163C4",
"s.	c #0467C5",
"t.	c #1174D1",
"u.	c #2588E5",
"v.	c #3797EE",
"w.	c #5AB0FF",
"x.	c #62B3FF",
"y.	c #5DACF9",
"z.	c #53A1EC",
"A.	c #4C9AE4",
"B.	c #4896E0",
"C.	c #4694DC",
"D.	c #53A1EB",
"E.	c #60AFFA",
"F.	c #6BBCFF",
"G.	c #65BAFF",
"H.	c #52A8FB",
"I.	c #3790E4",
"J.	c #217BD1",
"K.	c #146FCA",
"L.	c #0664C4",
"M.	c #0464C8",
"N.	c #005FC9",
"O.	c #0264C5",
"P.	c #0265C3",
"Q.	c #076AC8",
"R.	c #177AD7",
"S.	c #2F92ED",
"T.	c #44A4FB",
"U.	c #479DF2",
"V.	c #4597E9",
"W.	c #3C8DDF",
"X.	c #3384D5",
"Y.	c #3180CF",
"Z.	c #2F7ECB",
"`.	c #2A7CC8",
" +	c #2C7DCC",
".+	c #2F82D2",
"++	c #388DDE",
"@+	c #459BF0",
"#+	c #479FF6",
"$+	c #3B95ED",
"%+	c #2984DD",
"&+	c #1B78D5",
"*+	c #0464CA",
"=+	c #0164C2",
"-+	c #0568C6",
";+	c #0A6DCA",
">+	c #0F72CD",
",+	c #1574CE",
"'+	c #136CC6",
")+	c #1368C2",
"!+	c #1166C0",
"~+	c #1167BE",
"{+	c #1367BD",
"]+	c #1064BA",
"^+	c #0C62B7",
"/+	c #0E64BB",
"(+	c #0D65BC",
"_+	c #1068C1",
":+	c #126BC7",
"<+	c #136ECB",
"[+	c #1471D0",
"}+	c #1473D1",
"|+	c #1573D3",
"1+	c #0060C1",
"2+	c #005FC3",
"3+	c #0060C4",
"4+	c #0161C7",
"5+	c #0160CC",
"6+	c #0062C0",
"7+	c #0063C0",
"8+	c #0164C1",
"9+	c #0365C0",
"0+	c #0660C0",
"a+	c #0760BE",
"b+	c #065FBD",
"c+	c #055EBC",
"d+	c #045DB9",
"e+	c #035CB8",
"f+	c #015CB7",
"g+	c #025DBA",
"h+	c #035EBB",
"i+	c #015EBD",
"j+	c #015EBE",
"k+	c #015FC1",
"l+	c #0162C3",
"m+	c #0161C5",
"n+	c #0262C8",
"o+	c #0261CD",
"p+	c #0364CB",
"q+	c #0365C6",
"r+	c #0364C3",
"s+	c #0765C7",
"t+	c #0866C8",
"u+	c #0462C4",
"v+	c #0361C3",
"w+	c #0664C6",
"x+	c #0262C6",
"y+	c #005FC4",
"z+	c #0565CB",
"A+	c #0666CC",
"B+	c #0464CB",
"C+	c #0567CC",
"D+	c #0060C5",
"E+	c #0060C6",
"F+	c #0061C7",
"G+	c #0061C9",
"H+	c #0060C8",
"I+	c #0062C8",
"J+	c #0060CB",
"K+	c #005FC5",
"L+	c #0161C8",
"M+	c #0461C9",
"N+	c #0565CC",
"O+	c #0865CD",
"  . . + + @ @ @ + + + + + + + + # # # # # # # # # # # # # # # # # # # # # # $ $ % % % ",
"  . . + + @ @ @ + + + + + + + + # # # # # # # # # # # # # # # # # # # # # # $ $ & & & ",
". . . + + + + + . . . . . . . . * * * * * * * * # # # # # # # # # # # # # # # # = = - ",
". . + + + + + + . . . . . . . . * * * * * * * * # # # # # # # # # # # # # # # # * * % ",
". . + + + + + + . . . . . . . . * * * * * * * * # # # # # # # # ; ; ; ; ; ; # # # # # ",
"+ + + + + + . . . . . . . . . . * * * * * * * * # # # # # # # # ; ; ; ; ; ; # # # # # ",
"+ + + + + + . . . . . . . . . . . . . . . . . . + + + + + + + + ; ; ; ; ; ; ; ; ; ; # ",
"+ + + + + + . . + + + + + + + + + + + + + + + + + + + + + + + > ; ; ; ; ; ; ; ; , , = ",
"+ + + + + + . . . . . . . . . . +     + @ . . + . + + + . . . > ; ; ; ; ; ; ; ; , , = ",
"+ + + + + + . . . . . . . . . . .     + + . . . + + @ + . . . + ; ; ; ; ; ; ; ; ' ' * ",
"+ + + + + + . . . . . . . . . . ) ! ! ) ~ ) ) ) ~ { { ~ ~ ) ) + ; ; ; ; ; ; # # = = = ",
"+ + + + + + . . . . . . . . . . ~ ) ) ~ ~ ~ ) ! ~ { { ~ ~ ) ) ~ ; ; ; ; ; ; # # * * * ",
"+ + + + + + . . . . . . . . . . { { { ~ ~ ~ ) ! ~ ~ { ~ ) ) ) ~ # # # # # # # # # # $ ",
"+ + + + + + . . . . . . . . . . { ] { ~ { { ~ ! ! ) ~ ) ) ) ) ~ + # # # # # # # ^ = - ",
"+ + + + + + . . . . . . . . . . ~ / / ( ( _ / : < [ [ : : : : ~ + # # # # # $ $ } } } ",
"+ + + + + + . . * . * . * . * . ! ( ( | 1 2 3 4 5 6 7 7 [ 8 ) > # # # # # # $ $ & & & ",
"+ + + + # # # # 9 * 0 a b c 9 ^ d ! [ e f g h i j k l 6 m n o p q 9 r r r r r s # * . ",
"+ + + + # # r r 9 9 9 t t = # * . u v l w x y z A B C D E F o G q 9 9 9 r r r r * * . ",
"+ + # # # # # # * c H H c . + I J K h L M N O P Q R S T U V 8 W ^ ^ = = = = # # ^ X Y ",
"+ + # # # # # # = # . . . ~ ] 3 Z `  ...+.@.#.$.%.&.*.=.-.;.>.,.] ^ = = = # # # * * + ",
"# # # # # # + + '.+ ] _ / 7 ).!.~.{.].^./.(._./.:.<.[.}.|.1.2.3.4.5.5.6.$ $ % % % % % ",
"# # # # # # + + 7.! ( | | 8.9.0.a.b.c.d.e.f.g.h.i.j.k.l.m.n.o.;.p.I 5.6.$ % % % & - - ",
"# # # # # # + + ] q._ r.s.t.u.v.w.x.c.y.z.A.B.C.D.E.F.G.H.I.J.K.L.M.I I 6.6.% % N.N.N.",
"# # # # # # + ~ ) / O.P.Q.R.S.T.U.V.W.X.Y.Y.Z.`. +.+++@+#+$+%+&+L.M.*+I 5.6.$ % $ $ % ",
"# # # # # # + ~ ) : | =+-+;+>+,+'+)+!+~+{+{+]+^+/+(+_+:+<+[+}+|+7 1+2+3+4+6.$ % 5+5+5+",
"# # # # # # + + ~ : [ 7 6+7+8+9+0+a+b+c+d+d+e+f+g+h+i+j+k+1+2+2+l+7 3+m+n+n+$ $ o+o+o+",
"# # # # # # + + p+] _ q+q+8.P.r+p.s+t+s+u+v+u+w+w+M.x+4+! '.7.y+x+1 m+x+n+I - $ o+o+o+",
"# # # # # # + + '.  ) ( / O.q+q+I z+A+z+5.~ B+C+Y p+@ @ ; ; ; + / 1 x+x+n+5.$ $ 5+5+5+",
"+ + # # # # # # * * .     ! ) ) D+'.    c E+c F+G+G+H+H+H+G+. . ( : : : ~ + # * * * s ",
"+ + # # # # # # X ^ = # # + + + + .   * ; , ; ' ; ; ' I+I+. . ) : : [ ) . + # * # # r ",
"+ + + + # # r r s s J+J+J+c * * . ! !   . + .   . . . ) ! E+K+2+: [ ! ) + + # # # # # ",
"+ + + + # # r r 9 9 9 9 r # s *   ! ! !             ) ~ n+x+4+m+! ! ! ) + @ = # * * * ",
"! ) ) ) + + # # # # # # # + # + . . . . . . . . . . . . . ) . ) . . . + + + + + + + + ",
": : ) ) + + # # # # # # + + + + . . . . . . . . . . . . . . . . . . + + + + + + . . . ",
") ) ) ~ + + # # # # # # + + + + . . . . . . . . . . . . . . . . . + + + + + + + . . . ",
"~ ~ ~ ~ + + # # # # # # + + + + + + + + + + + + + + + + + + + + + + + + + + + + + + + ",
"~ ~ ~ ~ + + # # # # # # + + + + + + + + + + + + + + + + + + + + + + + + + + + + 6.6.6.",
"{ { { { + + # # # # # # + + + + + + + + + + + + + + + + + + + + + + + + + + + . L+L+L+",
"] { @ @ @ + # # # # # # # # + + + + + + + + + + + + + + + + + + ; ; # # # # . . L+L+L+",
"] ] @ @ @ + # # # # # # # # + + + + + + + + + + + + + + + + + + ; ; # # # * . . 6.6.6.",
"~ ~ + + # = ^ ^ r r # # # # # # # # # # # # # # # # # # # # # # ; ; # # # # 6.6.L+6.M+",
"{ { + + # # = = r r # # # # # # # # # # # # # # # # # # # # # # ; ; # # # # 6.6.B+N+O+"};
