/* XPM */
static char * water_xpm[] = {
"30 30 67 1",
" 	c #0066CC",
".	c #0065CC",
"+	c #0065CB",
"@	c #006ACE",
"#	c #307DD6",
"$	c #4A8CDD",
"%	c #1A70D1",
"&	c #0068CD",
"*	c #2475D2",
"=	c #4B8DDD",
"-	c #6DA8EB",
";	c #7CB6F3",
">	c #5D99E3",
",	c #317BD5",
"'	c #0269CE",
")	c #0F6ACE",
"!	c #2874D2",
"~	c #3D82D8",
"{	c #5398E4",
"]	c #7AB4F2",
"^	c #91C5FB",
"/	c #90C5FB",
"(	c #88BFF7",
"_	c #61A0E7",
":	c #3480D8",
"<	c #186DCF",
"[	c #0367CC",
"}	c #5FA1E8",
"|	c #83B8F4",
"1	c #7AB5F2",
"2	c #6AABED",
"3	c #60A4EA",
"4	c #5EA2E9",
"5	c #67A9EC",
"6	c #6DAAED",
"7	c #428CDE",
"8	c #136ED0",
"9	c #0267CD",
"0	c #1370D1",
"a	c #2A7FD8",
"b	c #418BDD",
"c	c #5693E0",
"d	c #4E8FDE",
"e	c #3C86DB",
"f	c #2E80D8",
"g	c #2D7FD8",
"h	c #3784DA",
"i	c #4C8EDE",
"j	c #498FDF",
"k	c #3989DD",
"l	c #3183DA",
"m	c #1772D2",
"n	c #0368CD",
"o	c #106DCF",
"p	c #0B6ED0",
"q	c #026BCE",
"r	c #056BCF",
"s	c #066BCF",
"t	c #036BCE",
"u	c #096ED0",
"v	c #1F76D3",
"w	c #287BD5",
"x	c #136FD0",
"y	c #0268CD",
"z	c #0466CC",
"A	c #286DCE",
"B	c #3170CE",
"                              ",
"                              ",
"                              ",
"                              ",
"                              ",
"                              ",
"                              ",
"                              ",
"                              ",
"                              ",
"              .               ",
"           +@#$%              ",
"         .&*=-;>,'.           ",
"        )!~{]^/(_:<[          ",
"       &#}|1234516789         ",
"       0abcdefghijklmn        ",
"       omp@@qrst@uvwxy        ",
"                              ",
"                              ",
"                              ",
"                              ",
"                              ",
"                              ",
"                              ",
"                              ",
"                              ",
"                              ",
"                              ",
"  ..........................  ",
"zABBBBBBBBBBBBBBBBBBBBBBBBBBAz"};
